<?xml version="1.0" standalone="no"?>
<!DOCTYPE svg PUBLIC "-//W3C//DTD SVG 1.1//EN" "http://www.w3.org/Graphics/SVG/1.1/DTD/svg11.dtd" >
<!--
2013-9-30: Created.
-->
<svg>
<metadata>
Created by iconfont
</metadata>
<defs>

<font id="x-icon" horiz-adv-x="1024" >
  <font-face
    font-family="x-icon"
    font-weight="500"
    font-stretch="normal"
    units-per-em="1024"
    ascent="896"
    descent="-128"
  />
    <missing-glyph />
    
    <glyph glyph-name="037" unicode="&#59108;" d="M142.336 832h140.8v-896h-140.8zM441.6 672h140.8v-576H441.6zM740.864 755.2h140.8v-742.4h-140.8z"  horiz-adv-x="1024" />

    
    <glyph glyph-name="036" unicode="&#59107;" d="M881.536-64h-140.8V832h140.8zM582.4 96H441.6V672h140.8zM283.264 12.799999999999955h-140.8V755.2h140.8z"  horiz-adv-x="1024" />

    
    <glyph glyph-name="030" unicode="&#59135;" d="M513.28 126.20799999999997c-13.056 0-25.472 4.992-35.712 14.464L181.248 436.096c-9.088 9.088-14.336 22.144-14.336 35.584 0 13.056 4.992 25.472 14.464 35.712 9.088 9.088 22.016 14.208 35.584 14.208 13.056 0 25.472-4.992 35.712-14.464l204.032-204.032V776.3199999999999c0 14.336 5.888 28.8 16.128 39.808 9.344 10.112 23.552 15.872 38.784 15.872 30.72 0 55.68-24.96 55.68-55.68v-473.856l204.16 204.16c9.088 9.088 22.144 14.336 35.584 14.336 13.056 0 25.472-4.992 35.712-14.464 9.088-9.088 14.208-22.016 14.208-35.584 0-13.056-4.992-25.472-14.464-35.712l-294.4-294.656c-9.088-8.96-22.016-14.336-34.816-14.336zM172.416-64c-31.232 0-56.576 25.344-56.576 56.576 0 31.232 25.344 56.576 56.576 56.576h679.296c31.232 0 56.576-25.344 56.576-56.576 0-31.232-25.344-56.576-56.576-56.576H172.416z"  horiz-adv-x="1024" />

    
    <glyph glyph-name="027" unicode="&#59136;" d="M927.36 535.9359999999999c-18.56 48.64-46.08 94.464-81.92 135.936l-0.512 0.512-0.768 0.768c-12.16 11.776-27.52 18.56-42.368 18.56-12.544 0-23.936-4.736-32.768-13.824-9.984-9.984-16.384-21.888-18.432-34.432-2.56-15.744 2.048-30.464 13.056-41.472l0.128-0.128c54.656-60.288 83.584-137.472 83.584-223.36 0-184.96-150.4-335.36-335.36-335.36s-335.36 150.4-335.36 335.36c0 85.888 29.056 163.2 83.968 223.744l0.384 0.384 0.128 0.256c10.368 10.88 14.848 25.216 12.288 40.32-2.048 12.544-8.576 24.832-18.56 34.816-8.832 8.832-20.48 13.824-32.768 13.824-14.848 0-30.208-6.784-42.368-18.56l-0.768-0.768-0.384-0.512C107.52 589.568 68.352 485.376 68.352 378.75199999999995c0-59.648 11.776-117.632 34.944-172.288 22.4-52.736 54.4-100.224 95.232-141.184 40.704-40.704 88.192-72.832 141.056-95.232 54.528-23.424 112.64-35.2 172.544-35.2 59.648 0 117.632 11.776 172.288 34.944 52.608 22.272 99.968 54.4 141.056 95.232 40.704 40.704 72.832 88.192 95.232 141.056 23.168 54.656 34.944 112.64 34.944 172.288 0.128 54.528-9.344 107.52-28.288 157.568zM512 446.592c33.408 0 54.144 28.16 54.144 54.144V779.136c0 33.408-28.16 54.144-54.144 54.144-33.408 0-54.144-28.16-54.144-54.144v-278.272c0-16.256 5.12-29.952 14.72-39.552 9.472-9.6 23.168-14.72 39.424-14.72z"  horiz-adv-x="1024" />

    
    <glyph glyph-name="031" unicode="&#59137;" d="M512 126.20799999999997c-30.72 0-55.68 24.96-55.68 55.68V655.8720000000001L252.16 451.584c-9.088-9.088-22.144-14.336-35.584-14.336-13.056 0-25.472 4.992-35.712 14.464-9.088 9.088-14.208 22.016-14.208 35.584 0 13.056 4.992 25.472 14.464 35.712l294.4 294.656c8.96 8.96 22.016 14.336 34.816 14.336 13.056 0 25.472-4.992 35.712-14.464l294.656-294.656c9.088-9.088 14.336-22.144 14.336-35.584 0-13.056-4.992-25.472-14.464-35.712-9.088-9.088-22.016-14.208-35.584-14.208-13.056 0-25.472 4.992-35.712 14.464L565.248 655.8720000000001v-473.088c0-14.336-5.888-28.8-16.128-39.808-10.112-11.008-22.912-16.768-37.12-16.768zM172.416-64c-31.232 0-56.576 25.344-56.576 56.576 0 31.232 25.344 56.576 56.576 56.576h679.296c31.232 0 56.576-25.344 56.576-56.576 0-31.232-25.344-56.576-56.576-56.576H172.416z"  horiz-adv-x="1024" />

    
    <glyph glyph-name="033" unicode="&#58989;" d="M753.3568-51.200000000000045c-10.5984 0-20.9664 4.3136-28.416 11.84-7.552 7.4752-11.8656 17.8432-11.8656 28.4416s4.3136 20.9536 11.84 28.416l63.6928 63.2064H251.3152c-40.2176 0-78.1568 15.5264-106.8288 43.7248-29.0176 28.5312-45.1968 66.6624-45.5296 107.3664v108.3648c0 22.0672 17.9584 40.0256 40.0256 40.0256 22.0672 0 40.0256-17.9584 40.0256-40.0256v-108.3904c0.3712-19.392 8.2432-37.4144 22.1568-50.8032 13.5424-13.0304 31.3472-20.2112 50.1504-20.2112 0.4736 0 0.9344 0 1.408 0.0128h535.8976l-63.6928 63.2064c-7.5904 7.5904-11.7632 17.6768-11.7632 28.416s4.1856 20.8384 11.776 28.4288 17.6896 11.776 28.4288 11.776 20.8384-4.1856 28.4288-11.776l131.648-131.6608c7.5392-7.4752 11.8528-17.8304 11.8528-28.4288s-4.3136-20.9536-11.84-28.416L781.7984-39.34720000000004c-7.4752-7.5392-17.8432-11.8528-28.4416-11.8528z m131.6608 439.104c-22.0672 0-40.0256 17.9584-40.0256 40.0256V536.3199999999999c-0.3712 19.392-8.2432 37.4144-22.1568 50.8032-13.5424 13.0304-31.3472 20.2112-50.1504 20.2112-0.4608 0-0.9344 0-1.3952-0.0128H235.4048l63.6928-63.2064c7.5264-7.4624 11.84-17.8176 11.84-28.416s-4.3136-20.9536-11.84-28.416c-7.4752-7.5392-17.8432-11.8528-28.4416-11.8528s-20.9536 4.3136-28.416 11.84L110.5536 618.9056c-7.5392 7.4752-11.8528 17.8304-11.8528 28.4288 0 10.5984 4.3136 20.9536 11.84 28.416L242.2016 807.424c7.5904 7.5904 17.6896 11.776 28.4288 11.776s20.8384-4.1856 28.4288-11.776 11.776-17.6896 11.776-28.4288-4.1856-20.8384-11.776-28.4288l-63.68-63.1936H772.672c40.2176 0 78.1568-15.5264 106.8288-43.7248 29.0176-28.5312 45.1968-66.6624 45.5296-107.3664v-108.3648c0-22.0672-17.9456-40.0128-40.0128-40.0128z"  horiz-adv-x="1024" />

    
    <glyph glyph-name="026" unicode="&#58995;" d="M893.6832-51.18719999999996H132.096c-0.2816 0-0.512-0.0128-0.7424-0.0128-12.6336 0-24.4352 6.7712-30.8224 17.664-6.528 11.1488-6.528 24.9984 0 36.1344 6.3872 10.9056 18.2016 17.6768 30.8352 17.6768 0.2304 0 0.4608 0 0.6912-0.0128h761.5872c0.2816 0 0.512 0.0128 0.7424 0.0128 12.6336 0 24.448-6.7712 30.8352-17.6768 6.528-11.1488 6.528-24.9856 0-36.1344-6.3872-10.8928-18.2016-17.664-30.8224-17.664-0.0128 0-0.4864 0-0.7168 0.0128z m-645.0304 114.2144l-0.064 264.192c0 70.592 27.4944 136.96 77.4144 186.8672 49.92 49.9072 116.2752 77.4016 186.8544 77.4016 145.6768 0 264.192-118.5536 264.192-264.2688v-264.192H248.6528z m264.2048 458.5856c-33.984 0-67.4688-9.024-96.8448-26.0992-59.7376-34.7136-96.4736-99.2128-95.872-168.2944V134.52800000000002h385.4464V327.23199999999997c0.6016 69.0688-36.1472 133.5552-95.8848 168.2816a192.9216 192.9216 0 0 1-96.8448 26.0992zM86.2464 291.23839999999996c-15.5136 0-28.1216 16.0256-28.1216 35.7376 0 19.712 12.5824 35.7376 28.0448 35.7376h91.4688c15.5008 0 28.1216-16.0256 28.1216-35.7376 0-19.648-12.6208-35.6864-28.1344-35.7376H86.2464z m760.1408 0.4608c-15.5136 0-28.1216 16.0256-28.1216 35.7248 0 19.712 12.6208 35.7376 28.1216 35.7376h83.392l7.9872-0.0384c15.5008 0 28.1216-16.0128 28.1216-35.6992 0-19.6992-12.6208-35.7248-28.1216-35.7248h-91.3792z m-605.4784 266.624c-7.0784 0-13.184 2.3808-17.6768 6.8736l-64.64 64.576c-10.9696 10.9824-8.5504 31.232 5.3888 45.1584 7.7952 7.7824 17.8176 12.2496 27.4944 12.2496 7.0656 0 13.184-2.3808 17.6768-6.8736l64.64-64.576c10.9568-10.9824 8.5504-31.2448-5.3888-45.1712-7.808-7.7696-17.8304-12.2368-27.4944-12.2368z m541.9008 0.2688c-9.6768 0-19.6992 4.4672-27.4816 12.2624-13.9264 13.9392-16.3456 34.2016-5.3888 45.1584l64.6272 64.6272c4.5056 4.4928 10.6112 6.8736 17.6896 6.8736 9.6768 0 19.6864-4.4672 27.4688-12.2624 13.9264-13.9392 16.3456-34.2016 5.3888-45.1584l-64.6272-64.6272c-4.4928-4.4928-10.5984-6.8736-17.6768-6.8736z m-271.0016 112.9856c-19.712 0-35.7376 12.6208-35.7376 28.1216v91.392c0 15.5008 16.0384 28.1088 35.7376 28.1088 19.712 0 35.7376-12.608 35.7376-28.1088v-91.392c0-15.5136-16.0384-28.1216-35.7376-28.1216z"  horiz-adv-x="1024" />

    
    <glyph glyph-name="032" unicode="&#59006;" d="M847.104 496.896C847.104 681.92 697.024 832 512 832S176.896 681.92 176.896 496.896c0-73.472 23.744-141.568 64.064-197.12L512-64l265.216 355.712h-0.448c43.904 56.896 70.336 127.68 70.336 205.184zM512 654.144c86.912 0 157.696-70.336 157.696-157.696S598.912 339.20000000000005 512 339.20000000000005s-157.696 70.336-157.696 157.696S425.088 654.144 512 654.144z m0 0"  horiz-adv-x="1024" />

    
    <glyph glyph-name="034" unicode="&#59007;" d="M284.8256 598.2592c0-118.4896 97.5616-214.5408 217.9072-214.5408S720.64 479.7696 720.64 598.2592C720.64 716.7488 623.0784 812.8 502.7328 812.8s-217.9072-96.0512-217.9072-214.5408z m0 0M602.7008 312.3968H421.2992c-153.5616 0.0128-278.656-123.328-280.8064-276.8768v-17.9712c0-62.336 125.7984-62.336 280.8064-62.336h181.4016c155.5712 0 280.8064 0 280.8064 62.336v17.9712c-2.1376 153.5488-127.2448 276.8896-280.8064 276.8768z m0 0"  horiz-adv-x="1024" />

    
    <glyph glyph-name="035" unicode="&#59008;" d="M408.1792 121.52319999999997c0-57.8688 46.912-104.7808 104.7808-104.7808s104.7808 46.912 104.7808 104.7808-46.912 104.7808-104.7808 104.7808c-57.856 0-104.7808-46.912-104.7808-104.7808z m0 0M677.9776 479.4496c-52.736 22.3104-108.736 33.6128-166.4128 33.6128-57.6896 0-113.6768-11.3152-166.4128-33.6128-50.9056-21.5296-96.6272-52.352-135.872-91.5968-21.824-21.824-21.824-57.216 0-79.04 21.824-21.824 57.216-21.824 79.04 0 29.0176 29.0048 62.784 51.7888 100.3648 67.6864 38.8864 16.448 80.2304 24.7936 122.88 24.7936s83.9808-8.3456 122.88-24.7936c37.5808-15.8976 71.36-38.6688 100.3648-67.6864 10.9184-10.9184 25.216-16.3712 39.5264-16.3712 14.2976 0 28.608 5.4528 39.5136 16.3712 21.824 21.824 21.824 57.216 0 79.04-39.2448 39.2448-84.9536 70.0672-135.872 91.5968z m0 0M983.168 557.184c-61.2352 61.2352-132.544 109.312-211.9808 142.8992-82.2656 34.7904-169.6128 52.4416-259.6224 52.4416-90.0096 0-177.3568-17.6384-259.6224-52.4416-79.424-33.5872-150.7328-81.6768-211.968-142.8992-21.824-21.824-21.824-57.216 0-79.04 10.9056-10.9184 25.216-16.3712 39.5136-16.3712 14.3104 0 28.608 5.4528 39.5264 16.3712 50.9952 51.008 110.3872 91.0464 176.4736 119.0016 68.4032 28.9408 141.1072 43.5968 216.0768 43.5968 74.9696 0 147.6736-14.6688 216.0768-43.5968 66.0992-27.9552 125.4784-68.0064 176.4864-119.0016 21.824-21.824 57.2032-21.824 79.04 0 21.824 21.824 21.824 57.2032 0 79.04z m0 0"  horiz-adv-x="1024" />

    
    <glyph glyph-name="028" unicode="&#59009;" d="M839.0784 675.4048H329.5616c-60.0576 0-109.184-49.1264-109.184-109.184V56.70399999999995c0-60.0448 49.1264-109.184 109.184-109.184h509.5296c60.0448 0 109.184 49.1264 109.184 109.184V566.2336c-0.0128 60.0448-49.1392 109.1712-109.1968 109.1712m0-72.7808c19.7248 0 36.3904-16.6656 36.3904-36.3904V56.70399999999995c0-19.7248-16.6656-36.3904-36.3904-36.3904H329.5616c-19.7248 0-36.3904 16.6656-36.3904 36.3904V566.2336c0 19.7248 16.6656 36.3904 36.3904 36.3904h509.5168M220.3776 165.88800000000003h-36.4032c-19.7248 0-36.3904 16.6656-36.3904 36.3904V711.808c0 19.7248 16.6656 36.3904 36.3904 36.3904H693.504c19.7248 0 36.3904-16.6656 36.3904-36.3904v-36.2496h72.7936V711.808c0 60.0448-49.1392 109.184-109.184 109.184H183.9744c-60.0448 0-109.184-49.1264-109.184-109.184v-509.5296c0-60.0448 49.1264-109.184 109.184-109.184h36.4032V165.88800000000003z m0 0M547.9296 165.88800000000003V457.0496c0 20.0192 16.3712 36.3904 36.3904 36.3904s36.3904-16.3712 36.3904-36.3904V165.88800000000003c0-20.0192-16.3712-36.4032-36.3904-36.4032-20.0192 0.0128-36.3904 16.384-36.3904 36.4032M729.8944 275.072H438.7456c-20.0192 0-36.3904 16.3712-36.3904 36.3904s16.3712 36.3904 36.3904 36.3904h291.1616c20.0192 0 36.4032-16.384 36.4032-36.3904-0.0128-20.0192-16.3968-36.3904-36.416-36.3904"  horiz-adv-x="1024" />

    
    <glyph glyph-name="029" unicode="&#59134;" d="M210.816-57.60000000000002c-76.928 0-139.648 62.592-139.648 139.648V681.984c0 76.928 62.592 139.648 139.648 139.648H510.72c21.888 0 39.68-17.792 39.68-39.68s-17.792-39.68-39.68-39.68H210.816c-33.28 0-60.416-27.136-60.416-60.416V81.91999999999996c0-33.28 27.136-60.416 60.416-60.416h599.936c33.28 0 60.416 27.136 60.416 60.416V381.952c0 21.888 17.792 39.552 39.68 39.552s39.68-17.792 39.68-39.552v-299.904c0-76.928-62.592-139.648-139.648-139.648H210.816z m174.336 251.008c-17.152 0-33.408 6.656-45.568 18.816-25.088 25.088-24.96 66.048 0 91.136l45.568 45.568 91.136-91.136-45.568-45.568c-12.16-12.032-28.416-18.816-45.568-18.816z m49.92 205.568l404.48 404.48 0.256 0.256C852.096 817.664 869.76 825.6 888.32 825.6c15.744 0 30.848-5.76 42.624-16.128 12.928-11.392 20.736-27.136 21.76-44.416 1.152-17.28-4.608-33.92-16-46.848-1.792-2.048-3.84-3.968-5.888-5.888l-0.256-0.256-404.48-404.48-91.008 91.392z"  horiz-adv-x="1024" />

    
    <glyph glyph-name="002" unicode="&#58999;" d="M824.5 484.9c-1.4-5.8-4.8-14.4-9.6-24.7h0.1l-0.6-1c-27.9-59.8-100.7-177-100.7-177s-0.1 0.3-0.4 0.7L692 245.79999999999995h102.6L598.8-15l44.5 177.5h-80.7l28 117.4c-22.7-5.5-49.5-13-81.3-23.2 0 0-43-25.2-123.8 48.5 0 0-54.5 48.1-22.9 60.1 13.4 5.1 65.2 11.6 106 17.1 55.1 7.5 89 11.4 89 11.4s-169.8-2.5-210.1 3.8c-40.3 6.3-91.4 73.7-102.3 132.9 0 0-16.8 32.5 36.2 17.1 53-15.4 272.6-59.9 272.6-59.9s-285.6 87.7-304.6 109.1c-19 21.4-55.9 116.8-51.1 175.4 0 0 2.1 14.6 17 10.7 0 0 211.1-96.6 355.5-149.5 144.4-53.1 269.9-80 253.7-148.5z m0 0"  horiz-adv-x="1024" />

    
    <glyph glyph-name="001" unicode="&#58978;" d="M693.12 548.736c11.776 0 23.424-0.896 35.072-2.176C696.832 692.608 540.672 801.152 362.368 801.152 163.2 801.152 0 665.344 0 492.928c0-99.584 54.272-181.248 145.024-244.736L108.8 139.13599999999997l126.72 63.488c45.312-8.96 81.664-18.176 126.976-18.176 11.392 0 22.656 0.512 33.792 1.28-7.04 24.32-11.264 49.664-11.264 76.032 0.128 158.464 136.064 286.976 308.096 286.976z m-194.816 98.304c27.392 0 45.312-17.92 45.312-45.312 0-27.136-17.92-45.312-45.312-45.312-27.136 0-54.4 18.176-54.4 45.312 0.128 27.392 27.264 45.312 54.4 45.312z m-253.568-90.624c-27.264 0-54.656 18.176-54.656 45.312 0 27.264 27.392 45.312 54.656 45.312 27.136 0 45.312-17.92 45.312-45.312-0.128-27.136-18.176-45.312-45.312-45.312zM1024 266.24c0 144.896-145.024 263.04-307.968 263.04-172.416 0-308.224-118.144-308.224-263.04 0-145.28 135.808-262.912 308.224-262.912 36.096 0 72.576 8.96 108.8 18.048l99.328-54.528-27.264 90.624C969.728 112.12800000000004 1024 184.57600000000002 1024 266.24z m-407.808 45.44c-17.92 0-36.224 17.92-36.224 36.224 0 18.048 18.304 36.224 36.224 36.224 27.52 0 45.44-18.176 45.44-36.224-0.128-18.304-17.92-36.224-45.44-36.224z m199.296 0c-17.92 0-35.968 17.92-35.968 36.224 0 18.048 18.048 36.224 35.968 36.224 27.264 0 45.312-18.176 45.312-36.224 0.128-18.304-18.048-36.224-45.312-36.224z m0 0"  horiz-adv-x="1024" />

    
    <glyph glyph-name="010" unicode="&#59133;" d="M121.088-62.72000000000003c-21.376 0-38.912 17.408-38.912 38.912V562.56c0 21.376 17.408 38.912 38.912 38.912h130.304c21.376 0 38.912-17.408 38.912-38.912 0-21.376-17.408-38.912-38.912-38.912H160v-508.672h704V523.648h-91.392c-21.376 0-38.912 17.408-38.912 38.912 0 21.376 17.408 38.912 38.912 38.912h130.304c21.376 0 38.912-17.408 38.912-38.912v-586.368c0-21.376-17.408-38.912-38.912-38.912H121.088zM283.904 100.22400000000005c-21.376 0-38.912 17.408-38.912 38.912 0 21.376 17.408 38.912 38.912 38.912h456.064c21.376 0 38.912-17.408 38.912-38.912 0-21.376-17.408-38.912-38.912-38.912H283.904z m0 195.456c-21.376 0-38.912 17.408-38.912 38.912 0 21.376 17.408 38.912 38.912 38.912h456.064c21.376 0 38.912-17.408 38.912-38.912 0-21.376-17.408-38.912-38.912-38.912H283.904zM512 425.984c-21.376 0-38.912 17.408-38.912 38.912V790.528c0 21.376 17.408 38.912 38.912 38.912 21.376 0 38.912-17.408 38.912-38.912v-325.76c0-21.376-17.536-38.784-38.912-38.784zM641.92 632.576c-8.832 0-17.28 3.712-23.296 10.24L512 748.8l-106.624-105.984c-6.272-6.272-14.72-9.856-23.68-9.856s-17.408 3.456-23.68 9.856c-6.272 6.272-9.856 14.72-9.856 23.68s3.456 17.408 9.856 23.68L488.32 820.48c6.144 6.528 14.72 10.24 23.68 10.24 8.32 0 16.256-3.072 22.272-8.832 0.512-0.512 1.024-0.896 1.408-1.408l130.304-130.304c13.056-12.288 13.696-32.896 1.408-45.952-0.512-0.512-0.896-1.024-1.408-1.408-5.888-6.4-14.464-10.112-23.296-10.112h-0.768zM642.304 633.856c-8.576-0.128-16.896 3.456-22.784 9.728l-107.52 106.88-107.52-106.88c-12.544-12.544-33.024-12.544-45.568 0s-12.544 33.024 0 45.568L489.216 819.5840000000001c11.776 12.544 31.616 13.184 44.16 1.408l1.408-1.408 130.304-130.304c12.544-11.776 13.184-31.616 1.408-44.16l-1.408-1.408c-5.888-6.4-14.08-9.856-22.784-9.856z"  horiz-adv-x="1024" />

    
    <glyph glyph-name="023" unicode="&#59111;" d="M132.096 58.624000000000024C94.592 58.624000000000024 64 89.08799999999997 64 126.72000000000003V700.672c0 37.632 30.592 68.096 68.096 68.096h700.288c37.632 0 68.096-30.592 68.096-68.096v-350.208c0-21.632-17.536-39.168-39.168-39.168-21.632 0-39.168 17.536-39.168 39.168V690.432H142.336v-330.624l118.912 79.872c9.088 6.144 19.712 9.472 30.72 9.472 12.416 0 24.576-4.352 34.432-12.16l125.184-100.096 92.672 69.504c9.472 7.04 21.12 10.88 33.024 10.88s23.552-3.84 33.024-10.88l110.592-82.944c8.32-6.272 13.824-15.488 15.232-25.856 1.536-10.368-1.152-20.736-7.424-29.056-7.296-9.856-19.072-15.744-31.36-15.744-8.576 0-16.64 2.688-23.552 7.936L577.28 333.05600000000004l-127.104-95.36-159.232 127.36-148.352-99.712V136.96000000000004h466.304c21.632 0 39.168-17.536 39.168-39.168s-17.536-39.168-39.168-39.168H132.096zM829.824-0.7680000000000291c-19.456 0-35.456 15.872-35.456 35.456v59.392h-59.392c-19.456 0-35.456 15.872-35.456 35.456 0 19.456 15.872 35.456 35.456 35.456h59.392v59.392c0 19.456 15.872 35.456 35.456 35.456 19.456 0 35.456-15.872 35.456-35.456v-59.392h59.392c19.456 0 35.456-15.872 35.456-35.456 0-19.456-15.872-35.456-35.456-35.456H865.28V34.559999999999945c0-19.456-15.872-35.328-35.456-35.328zM671.872 441.472c-54.4 0-98.56 44.16-98.56 98.56s44.16 98.56 98.56 98.56 98.56-44.16 98.56-98.56c0-54.272-44.16-98.56-98.56-98.56z m0 126.336c-15.36 0-27.776-12.416-27.776-27.776s12.416-27.776 27.776-27.776 27.776 12.416 27.776 27.776-12.416 27.776-27.776 27.776z"  horiz-adv-x="1024" />

    
    <glyph glyph-name="024" unicode="&#59112;" d="M443.904 4.096000000000004c-21.632 0-39.168 17.536-39.168 39.168 0 21.632 17.536 39.168 39.168 39.168h170.368c16 0 29.056 13.056 29.056 29.056v170.24c0 15.104 8.832 28.928 22.528 35.328 5.12 2.432 10.88 3.712 16.64 3.712 9.088 0 17.92-3.2 24.96-8.96l171.648-141.312c0.512-0.384 1.408-0.896 2.432-1.408 0.256 2.432 0.384 5.12 0.384 8.064v413.44c0 3.072-0.128 5.76-0.384 8.192-1.536-0.768-2.944-1.536-3.968-2.432L707.2 456.064c-6.912-5.76-15.872-8.96-24.832-8.96-5.76 0-11.392 1.28-16.768 3.712-13.568 6.4-22.4 20.352-22.4 35.456v170.24c0 16-13.056 29.056-29.056 29.056h-442.88c-16 0-29.056-13.056-29.056-29.056v-238.464c0-21.632-17.536-39.168-39.168-39.168S64 396.544 64 418.048V656.512c0 59.136 48.128 107.264 107.264 107.264h442.88c59.136 0 107.264-48.128 107.264-107.264v-87.296l107.136 88.32c13.696 10.496 36.736 21.76 60.16 21.76 10.88 0 20.992-2.304 30.336-6.912 18.56-9.216 40.832-30.848 40.832-81.92v-413.184c0-51.072-22.144-72.832-40.704-81.92-9.344-4.608-19.584-6.912-30.592-6.912-19.456 0-41.344 7.808-58.496 20.864l-108.8 89.472V111.36000000000001c0-59.136-48.128-107.264-107.264-107.264H443.904zM239.488 4.096000000000004c-20.864 0-37.888 17.024-37.888 37.888v98.432H103.168C82.304 140.41600000000005 65.28 157.44000000000005 65.28 178.30399999999997s17.024 37.888 37.888 37.888h98.432v98.432c0 20.864 17.024 37.888 37.888 37.888s37.888-17.024 37.888-37.888v-98.432h98.432c20.864 0 37.888-17.024 37.888-37.888s-17.024-37.888-37.888-37.888h-98.432v-98.432c-0.128-20.864-17.024-37.888-37.888-37.888z"  horiz-adv-x="1024" />

    
    <glyph glyph-name="016" unicode="&#59113;" d="M512.768-56.32000000000005c-30.848 0-55.936 25.088-55.936 55.936l2.176 333.696-333.824-2.176c-14.592 0.384-28.288 6.4-38.4 16.896-10.112 10.624-15.488 24.448-15.104 39.168 0.64 29.568 25.216 53.504 54.784 53.504H459.008V772.48c1.024 28.032 23.68 50.816 51.84 51.84h1.92c29.056 0 52.608-22.784 53.632-51.84v-331.776H901.12l2.432-2.432h0.512c26.624-2.688 47.36-24.832 48.256-51.584 1.024-29.568-22.144-54.528-51.84-55.552h-0.256l-333.696 2.176 2.176-333.696c0-30.848-25.088-55.936-55.936-55.936z"  horiz-adv-x="1024" />

    
    <glyph glyph-name="017" unicode="&#59114;" d="M798.208 753.152L510.464 465.28 222.592 753.152c-22.4 20.864-57.472 19.712-78.464-2.816-19.84-21.248-19.84-54.4 0-75.648l287.744-287.744-287.616-287.872c-22.656-21.632-23.552-57.6-1.792-80.256 21.632-22.656 57.6-23.552 80.256-1.792L510.464 308.48l287.744-291.456c22.656-22.656 59.392-22.656 82.176 0s22.656 59.392 0 82.176L588.8 386.944l291.456 287.744c20.864 22.4 19.712 57.472-2.816 78.464-21.248 19.84-54.4 19.84-75.648 0h-3.584z"  horiz-adv-x="1024" />

    
    <glyph glyph-name="019" unicode="&#59115;" d="M116.224-62.72000000000003c-10.24 0-19.968 3.968-27.264 11.264-7.296 7.296-11.264 16.896-11.264 27.264 0 21.248 17.28 38.528 38.528 38.528h791.68c21.248 0 38.528-17.28 38.528-38.528S929.152-62.72000000000003 907.904-62.72000000000003H116.224z m75.136 136.448c-10.112 0-19.968 4.224-26.88 11.52-8.704 8.832-12.544 21.376-10.368 33.664l48.768 258.944c1.408 8.192 5.504 15.872 11.776 21.504L627.2 818.688c7.424 7.552 17.28 11.904 27.904 12.032 10.624-0.256 20.608-4.48 28.032-12.032L889.728 608v-2.048c6.656-7.296 10.368-16.768 10.624-26.752-0.256-10.624-4.352-20.608-11.648-28.032L476.928 130.30399999999997c-6.144-6.144-14.336-10.112-22.912-11.008L197.76 74.24000000000001c-2.048-0.384-4.224-0.512-6.4-0.512z m47.232 86.272l192.512 34.048L672.768 440.32 517.376 598.784 276.096 352.12800000000004 238.592 160z m487.936 334.592l84.096 85.632-156.16 158.592-83.712-85.376 155.776-158.848z"  horiz-adv-x="1024" />

    
    <glyph glyph-name="006" unicode="&#59116;" d="M272.768-62.72000000000003C200.064-62.72000000000003 140.8-3.4560000000000173 140.8 69.24800000000005V445.44H95.616c-17.152 0-32.256 10.88-37.504 27.136-5.376 16.256 0.256 34.048 14.08 44.16L488.576 823.04c6.784 4.992 14.976 7.68 23.424 7.68 8.448 0 16.64-2.688 23.424-7.68l416.384-306.176c13.824-10.112 19.456-27.904 14.08-44.16-5.376-16.256-20.48-27.136-37.504-27.136H883.2v-376.192c0-72.832-59.264-131.968-131.968-131.968H272.768z m-68.096 578.944l1.28-1.024c8.832-7.552 13.952-18.56 13.952-30.208v-415.744c0-29.184 23.68-52.864 52.864-52.864H751.36c29.184 0 52.864 23.68 52.864 52.864V484.992c0 11.52 5.12 22.528 13.952 30.208l1.28 1.024L512 742.144 204.672 516.2239999999999zM512 80.12800000000004c-94.976 0-172.16 77.312-172.16 172.16 0 94.976 77.312 172.16 172.16 172.16s172.16-77.312 172.16-172.16S606.976 80.12800000000004 512 80.12800000000004z m0 265.344c-51.328 0-93.184-41.728-93.184-93.184s41.728-93.184 93.184-93.184 93.184 41.728 93.184 93.184-41.856 93.184-93.184 93.184z"  horiz-adv-x="1024" />

    
    <glyph glyph-name="021" unicode="&#59117;" d="M917.504-61.440000000000055c-9.984 0-20.48 4.864-28.928 13.184L718.976 118.39999999999998l-1.792-1.28c-70.528-52.224-154.624-79.872-243.072-79.872-52.864 0-104.448 9.856-153.6 29.312-50.432 19.968-95.872 49.152-135.04 86.784l-8.32 8.32c-36.736 37.376-65.024 80.896-83.968 129.408C74.88 337.91999999999996 65.92 387.328 66.56 437.888c1.408 104.32 43.648 201.728 118.912 274.304C262.4 787.712 364.672 829.44 473.216 829.44c107.264 0 207.744-40.576 282.88-114.432 73.856-69.76 116.736-163.712 120.704-264.576 3.968-100.48-30.976-198.144-98.432-274.944l-1.536-1.792 169.728-166.912c7.04-6.912 10.88-16.512 10.88-27.136 0-10.752-4.096-21.248-10.88-28.032-7.68-7.936-17.92-12.544-29.056-13.056zM472.32 750.208c-176.256 0-321.92-141.696-324.608-316.032v-2.176c2.944-173.056 146.048-313.856 319.104-313.856h10.624c173.44 0 316.8 141.696 319.488 316.032-2.816 174.336-148.48 316.032-324.608 316.032zM615.68 470.016h-107.52v107.52c0 19.84-16 35.84-35.84 35.84s-35.84-16-35.84-35.84v-107.52h-107.52c-19.84 0-35.84-16-35.84-35.84s16-35.84 35.84-35.84h107.52v-107.52c0-19.84 16-35.84 35.84-35.84s35.84 16 35.84 35.84v107.52h107.52c19.84 0 35.84 16 35.84 35.84s-16.128 35.84-35.84 35.84z"  horiz-adv-x="1024" />

    
    <glyph glyph-name="018" unicode="&#59118;" d="M613.376 175.48800000000006c-24.576 0-39.296 19.968-39.296 39.296V546.688c0 24.192 15.104 39.296 39.296 39.296 24.576 0 39.296-19.968 39.296-39.296v-332.032c0-19.2-14.72-39.168-39.296-39.168z m-217.216 0c-24.576 0-39.296 19.968-39.296 39.296V546.688c0 18.176 9.216 39.296 35.2 39.296 24.576 0 39.296-19.968 39.296-39.296v-332.032c0-18.048-9.344-39.168-35.2-39.168zM301.696-64v0.128l-5.248 0.128c-35.712 0-69.504 14.08-95.36 39.808-25.6 25.6-39.808 59.52-39.808 95.36v472.32c0 18.304 9.344 39.68 35.712 39.68 24.832 0 39.68-20.224 39.68-39.68v-476.544c0-33.536 26.24-59.776 59.776-59.776h422.656c33.536 0 59.776 26.24 59.776 59.776v472.32c0 24.832 20.224 39.68 39.68 39.68 23.04 0 39.68-14.976 39.68-35.712v-472.448c0-35.712-14.08-69.632-39.808-95.36-25.472-25.6-59.392-39.68-95.232-39.68H301.696zM76.8 628.352c-24.832 0-39.68 20.224-39.68 39.68 0 19.2 14.336 39.68 35.712 39.68h186.496c14.848 0 33.536 7.552 44.416 18.048l0.384 0.384 41.216 57.6 0.512 0.512C371.2 814.08 410.112 832 449.792 832h116.096c39.68 0 78.848-17.92 104.576-47.872l45.952-54.272 0.128-0.128 0.128-0.128c11.136-14.72 25.6-21.76 44.16-21.76h182.272c21.248 0 43.904-16 43.904-39.68 0-24.832-20.224-39.68-39.68-39.68H76.8z m557.312 79.36L610.56 734.4639999999999l-0.128 0.384c-11.648 15.36-25.344 22.144-44.544 22.144h-116.096c-18.944 0-33.024-7.04-44.288-22.144l-0.128-0.384-23.552-26.752h252.288z"  horiz-adv-x="1024" />

    
    <glyph glyph-name="003" unicode="&#59119;" d="M447.744 17.152000000000044C703.488-25.600000000000023 921.6 192.51199999999994 878.848 448.256c-25.856 154.88-147.84 276.736-302.592 302.592C320.512 793.6 102.4 575.488 145.152 319.744c25.856-154.88 147.712-276.736 302.592-302.592zM512-62.72000000000003C237.568-62.72000000000003 20.864 184.832 73.088 468.864c30.08 163.84 190.208 323.968 354.048 354.048C711.168 875.136 958.72 658.432 958.72 384c0-246.656-200.064-446.72-446.72-446.72zM355.968 404.864l3.2-2.56c13.824-11.136 18.176-30.592 9.984-46.336-3.712-7.04-5.504-13.696-6.528-21.76-3.584-26.624 8.704-55.552 34.56-81.408 39.68-39.68 81.408-45.696 111.104-15.872 16.256 16.256 22.272 37.376 16.64 56.32-5.504 18.304-7.552 20.992-49.664 88.576-23.04 36.48-32.512 58.752-35.712 84.096-4.352 36.096 7.168 68.224 33.792 94.848 55.168 55.168 135.296 46.464 203.648-21.888 45.184-45.184 65.536-93.184 58.752-138.88-0.64-5.12-1.664-9.856-2.816-14.464-6.784-27.392-39.68-38.528-61.824-20.992-13.056 10.24-18.176 27.776-12.672 43.392 1.792 5.248 2.816 10.496 3.328 16.768 2.048 22.656-8.704 46.848-30.592 68.608-34.56 34.56-75.392 40.448-101.248 14.72-16.64-16.64-19.456-36.864-9.088-63.104 5.12-12.288 7.552-16.256 41.728-70.272 24.576-38.144 36.096-64.64 40.448-88.96 6.016-39.296-5.504-71.424-35.328-101.248-28.16-28.16-59.904-42.496-92.416-42.496-41.344 0.768-82.56 22.272-125.056 64.64-32.512 32.512-56.32 72.192-62.72 103.936-5.12 26.624-1.536 53.248 10.368 80.128 0.128 0.256 0.256 0.64 0.384 1.024 10.368 22.272 38.784 28.544 57.728 13.184z"  horiz-adv-x="1024" />

    
    <glyph glyph-name="008" unicode="&#59120;" d="M247.04-62.72000000000003c-68.864 0-124.928 56.064-124.928 124.928V705.792C122.112 774.656 178.176 830.72 247.04 830.72h529.92c68.864 0 124.8-56.064 124.8-124.928v-7.808h0.128v-486.272c0-2.304-0.128-4.608-0.256-7.296v-33.92c0-6.784-2.56-13.184-7.424-17.92L870.4 128.76800000000003l-0.128-0.128c-1.664-1.92-3.328-3.712-5.12-5.376L715.776-26.111999999999966c-1.792-1.792-3.584-3.456-5.376-4.992l-0.256-0.256-23.68-23.68c-4.736-4.736-11.264-7.424-17.92-7.424h-33.92c-2.688-0.128-4.992-0.256-7.296-0.256H247.04z m0 818.176c-27.392 0-49.664-22.272-49.664-49.664v-643.584c0-27.392 22.272-49.664 49.664-49.664h352.256V101.12c0 76.544 62.336 138.752 138.88 138.752h88.448v465.92c0 27.392-22.272 49.664-49.664 49.664H247.04z m491.136-590.976c-35.072 0-63.616-28.544-63.616-63.616v-61.568l62.72 62.592 62.592 62.592h-61.696zM330.112 206.72000000000003c-20.736 0-37.632 16.896-37.632 37.632s16.896 37.632 37.632 37.632h136.32c20.736 0 37.632-16.896 37.632-37.632s-16.896-37.632-37.632-37.632H330.112z m0 153.344c-20.736 0-37.632 16.896-37.632 37.632s16.896 37.632 37.632 37.632h363.52c20.736 0 37.632-16.896 37.632-37.632s-16.896-37.632-37.632-37.632h-363.52z m0 153.344c-20.736 0-37.632 16.896-37.632 37.632s16.896 37.632 37.632 37.632h363.52c20.736 0 37.632-16.896 37.632-37.632s-16.896-37.632-37.632-37.632h-363.52z"  horiz-adv-x="1024" />

    
    <glyph glyph-name="005" unicode="&#59121;" d="M109.312 457.6c-22.144 0-40.192 18.048-40.192 40.192s18.048 40.192 40.192 40.192H565.76c22.144 0 40.192-18.048 40.192-40.192s-18.048-40.192-40.192-40.192H109.312zM109.312 230.144c-10.752 0-20.864 4.224-28.416 11.776-7.552 7.552-11.776 17.664-11.776 28.416 0 22.144 18.048 40.064 40.192 40.064H565.76c22.144 0 40.192-18.048 40.192-40.192s-18.048-40.192-40.192-40.192H109.312zM113.536 685.184c-22.144 0-40.192 18.048-40.192 40.192S91.392 765.44 113.536 765.44h796.928c22.144 0 40.192-18.048 40.192-40.192s-18.048-40.192-40.192-40.192H113.536zM109.312 2.5599999999999454C87.168 2.5599999999999454 69.12 20.607999999999947 69.12 42.75199999999995s18.048 40.192 40.192 40.192h805.504c22.144 0 40.192-18.048 40.192-40.192S936.832 2.5599999999999454 914.688 2.5599999999999454H109.312zM716.544 364.672l190.208-174.72c16.768-15.36 43.904-3.456 43.904 19.328v349.44c0 22.784-27.136 34.688-43.904 19.328L716.544 403.328c-11.264-10.368-11.264-28.288 0-38.656z"  horiz-adv-x="1024" />

    
    <glyph glyph-name="007" unicode="&#59122;" d="M297.344-62.72000000000003c-78.208 0-141.824 63.616-141.824 141.824V508.544c0 78.208 63.616 141.824 141.824 141.824h429.44c78.208 0 141.824-63.616 141.824-141.824v-429.44c0-78.208-63.616-141.824-141.824-141.824H297.344z m0 633.856c-16.512 0-32.256-6.528-44.16-18.432s-18.432-27.648-18.432-44.16v-429.44c0-16.512 6.528-32.256 18.432-44.16s27.648-18.432 44.16-18.432h429.44c16.512 0 32.256 6.528 44.16 18.432s18.432 27.648 18.432 44.16V508.544c0 16.512-6.528 32.256-18.432 44.16s-27.648 18.432-44.16 18.432h-3.072v-46.976c0-21.888-17.792-39.552-39.552-39.552-21.888 0-39.552 17.792-39.552 39.552v46.976h-264.96v-46.976c0-21.888-17.792-39.552-39.552-39.552-21.888 0-39.552 17.792-39.552 39.552v46.976h-3.2z m42.752 99.712c-10.624 0-20.608 4.096-28.032 11.648-15.36 15.36-15.36 40.576 0 56.064 60.16 60.16 129.408 92.032 199.936 92.16 70.656 0 139.776-31.872 199.936-92.032 15.36-15.36 15.36-40.576 0-56.064-7.424-7.552-17.408-11.648-27.904-11.648-10.624 0-20.608 4.096-28.16 11.648-45.44 45.44-93.824 68.48-143.744 68.48-50.048 0-98.56-23.168-144-68.736-7.424-7.296-17.664-11.52-28.032-11.52zM363.136 145.15200000000004c-23.296 0-42.368 18.944-42.368 42.368V189.44000000000005c0 23.296 18.944 42.368 42.368 42.368h297.856c23.296 0 42.368-18.944 42.368-42.368v-1.92c0-23.296-18.944-42.368-42.368-42.368H363.136z"  horiz-adv-x="1024" />

    
    <glyph glyph-name="004" unicode="&#59123;" d="M107.904 457.6C85.76 457.6 67.84 475.648 67.84 497.792s18.048 40.192 40.192 40.192H564.48c22.144 0 40.192-18.048 40.192-40.192s-18.048-40.192-40.192-40.192H107.904zM108.032 230.144c-10.752 0-20.864 4.224-28.416 11.776-7.552 7.552-11.776 17.664-11.776 28.416 0 22.144 18.048 40.064 40.192 40.064H564.48c22.144 0 40.192-18.048 40.192-40.192s-18.048-40.192-40.192-40.192H108.032zM112.256 685.184c-22.144 0-40.192 18.048-40.192 40.192S90.112 765.44 112.256 765.44h796.928c22.144 0 40.192-18.048 40.192-40.192s-18.048-40.192-40.192-40.192H112.256zM108.032 2.5599999999999454C85.888 2.5599999999999454 67.84 20.607999999999947 67.84 42.75199999999995s18.048 40.192 40.192 40.192h805.504c22.144 0 40.192-18.048 40.192-40.192S935.552 2.5599999999999454 913.408 2.5599999999999454H108.032zM947.712 403.328L757.504 577.9200000000001c-16.768 15.36-43.904 3.456-43.904-19.328v-349.312c0-22.784 27.136-34.688 43.904-19.328l190.208 174.72c11.264 10.368 11.264 28.288 0 38.656z"  horiz-adv-x="1024" />

    
    <glyph glyph-name="020" unicode="&#59124;" d="M917.504-61.440000000000055c-9.984 0-20.48 4.864-28.928 13.184L718.976 118.39999999999998l-1.792-1.28c-70.528-52.224-154.624-79.872-243.072-79.872-52.864 0-104.448 9.856-153.6 29.312-50.432 19.968-95.872 49.152-135.04 86.784l-8.32 8.32c-36.736 37.376-65.024 80.896-83.968 129.408C74.88 337.91999999999996 65.92 387.328 66.56 437.888c1.408 104.32 43.648 201.728 118.912 274.304C262.4 787.712 364.672 829.44 473.216 829.44c107.264 0 207.744-40.576 282.88-114.432 73.856-69.76 116.736-163.712 120.704-264.576 3.968-100.48-30.976-198.144-98.432-274.944l-1.536-1.792 169.728-166.912c7.04-6.912 10.88-16.512 10.88-27.136 0-10.752-4.096-21.248-10.88-28.032-7.68-7.936-17.92-12.544-29.056-13.056zM472.32 750.208c-176.256 0-321.92-141.696-324.608-316.032v-2.176c2.944-173.056 146.048-313.856 319.104-313.856h10.624c173.44 0 316.8 141.696 319.488 316.032-2.816 174.336-148.48 316.032-324.608 316.032z"  horiz-adv-x="1024" />

    
    <glyph glyph-name="009" unicode="&#59125;" d="M222.464-56.831999999999994C136.576-56.831999999999994 66.56 13.05600000000004 66.56 99.072V204.79999999999995c0 86.016 70.016 155.904 155.904 155.904h261.632v-261.632c0-86.016-70.016-155.904-155.904-155.904h-105.728z m0 338.048c-42.24 0-76.544-34.304-76.544-76.544v-105.728c0-42.24 34.304-76.544 76.544-76.544h105.728c42.24 0 76.544 34.304 76.544 76.544V281.216H222.464z m317.44 123.52V666.3679999999999c0 86.016 70.016 155.904 155.904 155.904h105.728c86.016 0 155.904-70.016 155.904-155.904V560.64c0-86.016-70.016-155.904-155.904-155.904H539.904z m155.904 338.176c-42.24 0-76.544-34.304-76.544-76.544v-182.144h182.144c42.24 0 76.544 34.304 76.544 76.544v105.728c0 42.24-34.304 76.544-76.544 76.544h-105.6zM222.464 404.736C136.576 404.736 66.56 474.752 66.56 560.64v105.728c0 86.016 70.016 155.904 155.904 155.904h105.728c86.016 0 155.904-70.016 155.904-155.904v-261.632H222.464z m0 338.176c-42.24 0-76.544-34.304-76.544-76.544V560.64c0-42.24 34.304-76.544 76.544-76.544h182.144V666.3679999999999c0 42.24-34.304 76.544-76.544 76.544h-105.6zM695.808-56.831999999999994c-86.016 0-155.904 70.016-155.904 155.904V360.70399999999995h261.632c86.016 0 155.904-70.016 155.904-155.904v-105.728c0-86.016-70.016-155.904-155.904-155.904h-105.728z m-76.544 155.904c0-42.24 34.304-76.544 76.544-76.544h105.728c42.24 0 76.544 34.304 76.544 76.544V204.79999999999995c0 42.24-34.304 76.544-76.544 76.544H619.264v-182.272z"  horiz-adv-x="1024" />

    
    <glyph glyph-name="012" unicode="&#59126;" d="M196.352 692.352l286.08-300.16c13.824-13.184 35.456-13.184 49.28 0L828.16 692.352H196.352z m707.072-21.12l-328.96-330.496c-39.424-38.016-102.016-38.016-141.44 0L120.448 674.944c-2.432-5.504-3.584-11.392-3.2-17.28v-551.552c-1.024-17.536 11.904-32.64 29.312-34.688H874.24c17.536-0.256 32.128 13.312 33.024 30.848 0.256 1.28 0.256 2.56 0 3.84V654.976c0.64 4.736-0.512 9.6-3.2 13.568l-0.64 2.688z m-753.152 92.032h723.84c54.784-0.256 98.944-44.928 98.56-99.712V105.98400000000004c1.28-54.144-41.216-99.328-95.36-101.376h-727.04c-54.016 0-98.048 43.52-98.56 97.536V654.976c-5.12 54.528 34.944 102.912 89.472 108.032 1.92 0.128 3.968 0.256 5.888 0.384h3.2z"  horiz-adv-x="1024" />

    
    <glyph glyph-name="011" unicode="&#59127;" d="M645.376-49.91999999999996c-35.968 0-69.504 19.328-87.424 50.432l-22.272 38.528h-0.768c-8.192-0.512-15.744-0.768-23.04-0.768-7.296 0-14.72 0.256-23.04 0.768h-0.768L465.92 0.5119999999999436c-17.92-31.104-51.456-50.432-87.424-50.432-17.664 0-35.072 4.608-50.304 13.44l-88.448 51.072c-23.296 13.44-39.936 35.2-46.976 61.184-6.912 25.984-3.456 53.12 10.112 76.416l22.272 38.528-0.384 0.64c-8.576 12.928-16.384 26.368-23.04 39.936l-0.384 0.768h-44.416c-55.552 0-100.736 45.184-100.736 100.736v102.016c0 55.552 45.184 100.736 100.736 100.736h44.544l0.384 0.768c6.656 13.696 14.464 27.136 23.04 39.936l0.384 0.64-22.272 38.784c-27.776 48.128-11.264 109.824 36.864 137.728l88.448 51.072C343.552 813.312 360.96 817.92 378.624 817.92c35.968 0 69.504-19.328 87.424-50.432l22.272-38.528h0.768c7.936 0.512 15.744 0.768 23.04 0.768 7.296 0 14.848-0.256 23.04-0.768h0.768l22.272 38.528C576 798.592 609.536 817.92 645.504 817.92c17.664 0 35.072-4.608 50.304-13.568l88.448-51.072c48.128-27.776 64.64-89.6 36.864-137.728l-22.272-38.528 0.384-0.64c8.576-12.928 16.384-26.368 23.04-39.936l0.384-0.768h44.544c55.552 0 100.736-45.184 100.736-100.736v-102.016c0-55.552-45.184-100.736-100.736-100.736h-44.544l-0.384-0.768c-6.656-13.696-14.464-27.136-23.04-39.936l-0.384-0.64 22.272-38.528c13.44-23.296 17.024-50.432 10.112-76.416-6.912-25.984-23.68-47.744-46.976-61.184l-88.448-51.072c-15.36-8.96-32.768-13.568-50.432-13.568z m-110.208 167.936c28.672 0 55.296-15.36 69.632-40.192l21.888-37.888c5.888-10.112 15.872-10.88 18.816-10.88 3.84 0 7.424 1.024 10.752 2.944l88.32 51.072c10.368 6.016 13.824 19.2 7.936 29.568l-21.888 37.888c-15.232 26.368-14.08 59.776 2.944 84.992 6.784 9.984 12.672 20.352 17.792 30.72 13.696 27.648 41.344 44.928 72.192 44.928h43.648c11.904 0 21.632 9.728 21.632 21.632v102.016c0 11.904-9.728 21.632-21.632 21.632h-43.52c-30.848 0-58.496 17.152-72.192 44.928-5.504 11.008-11.52 21.376-17.792 30.72-17.28 25.728-18.432 58.24-2.944 84.992l21.888 37.888c3.712 6.528 3.2 12.544 2.176 16.512-1.152 3.968-3.712 9.472-10.112 13.184l-88.448 51.072c-3.328 1.92-6.912 2.944-10.752 2.944-2.944 0-13.184-0.768-18.816-10.88L604.8 689.92c-14.336-24.832-40.96-40.192-69.632-40.192-1.664 0-3.328 0.128-4.992 0.128h-0.256c-6.144 0.384-12.16 0.64-17.792 0.64s-11.776-0.256-17.792-0.64c-1.792-0.128-3.584-0.256-5.376-0.256-28.672 0-55.296 15.36-69.632 40.192l-21.888 37.888c-5.76 10.112-15.872 10.88-18.816 10.88-3.84 0-7.424-1.024-10.752-2.944l-88.448-51.072c-6.4-3.712-8.96-9.216-10.112-13.184s-1.536-9.984 2.176-16.512l21.888-37.888c15.232-26.368 14.08-59.776-2.944-84.992-6.784-9.984-12.672-20.352-17.792-30.72-13.696-27.648-41.344-44.928-72.192-44.928h-43.648c-11.904 0-21.632-9.728-21.632-21.632v-102.016c0-11.904 9.728-21.632 21.632-21.632h43.52c30.848 0 58.496-17.152 72.192-44.928 5.504-11.008 11.52-21.376 17.792-30.72 17.28-25.728 18.432-58.24 2.944-84.992L271.36 112.76800000000003c-2.944-4.992-3.712-10.88-2.176-16.512s5.12-10.24 10.112-13.056l88.32-51.072c3.328-1.92 6.912-2.944 10.752-2.944 2.944 0 13.056 0.768 18.816 10.88l21.888 37.888c14.336 24.832 40.96 40.192 69.632 40.192 1.664 0 3.328-0.128 4.992-0.128h0.384c6.144-0.384 12.16-0.64 17.792-0.64 5.76 0 11.776 0.256 17.792 0.64h5.504zM512 232.192c-83.712 0-151.808 68.096-151.808 151.808S428.288 535.808 512 535.808 663.808 467.712 663.808 384 595.712 232.192 512 232.192z m0 224.512c-40.064 0-72.704-32.64-72.704-72.704 0-40.064 32.64-72.704 72.704-72.704 40.064 0 72.704 32.64 72.704 72.704 0 40.064-32.64 72.704-72.704 72.704z"  horiz-adv-x="1024" />

    
    <glyph glyph-name="022" unicode="&#59128;" d="M512-62.72000000000003c-60.288 0-118.784 11.776-173.952 35.072-53.248 22.528-100.992 54.656-141.952 95.744-40.96 40.96-73.216 88.832-95.744 141.952C77.056 265.216 65.28 323.712 65.28 384c0 60.288 11.776 118.784 35.072 173.952 22.528 53.248 54.656 100.992 95.744 141.952 40.96 40.96 88.832 73.216 141.952 95.744C393.216 818.944 451.712 830.72 512 830.72c60.288 0 118.784-11.776 173.952-35.072 53.248-22.528 100.992-54.656 141.952-95.744 40.96-40.96 73.216-88.832 95.744-141.952 23.296-55.04 35.072-113.664 35.072-173.952 0-60.288-11.776-118.784-35.072-173.952-22.528-53.248-54.656-100.992-95.744-141.952s-88.832-73.216-141.952-95.744C630.784-50.94399999999996 572.288-62.72000000000003 512-62.72000000000003z m0 820.224c-205.952 0-373.504-167.552-373.504-373.504S306.048 10.495999999999981 512 10.495999999999981 885.504 178.048 885.504 384 717.952 757.504 512 757.504zM512 593.664m-52.48 0a52.48 52.48 0 1 1 104.96 0 52.48 52.48 0 1 1-104.96 0ZM512 121.856c-28.928 0-52.48 23.552-52.48 52.48V419.584c0 28.928 23.552 52.48 52.48 52.48s52.48-23.552 52.48-52.48v-245.12c0-29.056-23.552-52.608-52.48-52.608z"  horiz-adv-x="1024" />

    
    <glyph glyph-name="025" unicode="&#59129;" d="M390.4 19.327999999999975H147.328V262.4c0 20.864-20.864 41.728-41.728 41.728-20.736 0-41.6-20.864-41.6-41.728v-277.76c0-0.896 0-1.792 0.128-2.688-0.128-1.408-0.128-2.816-0.128-4.224 0-20.864 20.864-41.728 41.728-41.728H390.4c20.864 0 41.728 20.864 41.728 41.728 0 20.736-20.864 41.6-41.728 41.6zM105.728 463.872c20.864 0 41.728 20.864 41.728 41.728V748.672H390.4c20.864 0 41.728 20.864 41.728 41.728S411.264 832 390.4 832H105.728c-15.616 0-31.232-11.776-38.144-26.368-2.304-4.864-3.584-10.112-3.584-15.36V505.6c0-20.864 20.864-41.728 41.728-41.728zM946.944 818.944c-1.024 1.024-2.176 2.048-3.328 3.072-0.768 0.64-1.664 1.28-2.56 1.92-6.784 4.992-14.848 8.064-22.784 8.064H633.6c-20.864 0-41.728-20.864-41.728-41.728s20.864-41.728 41.728-41.728h243.072V505.6c0-20.864 13.952-34.688 41.728-41.728 20.864 0 41.728 20.864 41.728 41.728V790.272c-0.128 10.496-5.376 20.864-13.184 28.672zM918.272 304.12800000000004c-20.864 0-41.728-20.864-41.728-41.728v-243.072H633.6c-27.776 0-41.728-13.952-41.728-41.728 0-20.864 20.864-41.728 41.728-41.728h284.8c20.864 0 41.728 20.864 41.728 41.728 0 1.152-0.128 2.304-0.256 3.456 0.128 1.152 0.256 2.304 0.256 3.456V262.4c-0.128 20.864-20.992 41.728-41.856 41.728zM202.88 387.456c6.912-20.864 20.864-41.728 48.64-41.728h520.96c20.864 0 41.728 20.864 41.728 41.728s-20.864 41.728-41.728 41.728H244.608c-20.864 0-41.728-20.864-41.728-41.728z"  horiz-adv-x="1024" />

    
    <glyph glyph-name="014" unicode="&#59130;" d="M555.264 811.648c-12.288 5.76-27.008 4.224-37.632-4.096-0.512-0.384-52.608-40.832-110.208-82.304-100.224-71.936-129.408-83.968-135.296-85.888h-111.488c-29.312 0-55.04-11.904-72.448-33.408C73.216 587.392 65.28 563.072 65.28 535.6800000000001V232.192c0-27.392 7.936-51.712 22.912-70.272 17.408-21.632 43.136-33.408 72.448-33.408h111.488c5.888-1.92 35.072-13.952 135.296-85.888 57.6-41.472 109.696-81.792 110.208-82.304 10.752-8.32 25.344-9.856 37.632-4.096 12.288 5.76 20.096 17.92 20.096 31.232V780.4159999999999c0 13.312-7.808 25.472-20.096 31.232zM958.72 384.128c-0.128 45.824-13.056 90.368-37.504 128.896-23.936 37.632-57.856 68.096-97.92 87.936-17.536 8.704-38.912 1.792-47.872-15.232-8.832-17.152-1.92-38.016 15.616-46.72 59.52-29.44 96.384-88.832 96.512-155.008 0-66.304-36.992-125.568-96.512-155.008-17.536-8.704-24.576-29.568-15.616-46.72 8.832-17.152 30.336-23.936 47.872-15.232 40.064 19.84 73.984 50.176 97.92 87.936 24.448 38.528 37.504 83.2 37.504 128.896v0.128 0.128zM768.256 384.128c-0.896 25.344-8.32 49.28-20.736 70.144-4.48 11.136-15.744 18.944-29.056 18.944-17.152 0-30.976-13.184-30.976-29.312 0-8.32 3.712-15.872 9.6-21.12 5.632-11.904 8.96-25.088 9.6-38.784-0.64-13.696-3.968-26.752-9.6-38.784-5.888-5.376-9.6-12.8-9.6-21.12 0-16.256 13.952-29.312 30.976-29.312 13.312 0 24.576 7.936 29.056 18.944 12.416 20.864 19.84 44.672 20.736 70.144v0.128 0.128z"  horiz-adv-x="1024" />

    
    <glyph glyph-name="013" unicode="&#59131;" d="M348.544 444.032H165.76C110.208 444.032 65.28 488.96 65.28 544.512V727.296c0 55.552 44.928 100.48 100.48 100.48h182.784c55.552 0 100.48-44.928 100.48-100.48v-182.784c0-55.552-45.056-100.48-100.48-100.48zM858.24 444.032H675.456c-55.552 0-100.48 44.928-100.48 100.48V727.296c0 55.552 44.928 100.48 100.48 100.48h182.784c55.552 0 100.48-44.928 100.48-100.48v-182.784c0-55.552-44.928-100.48-100.48-100.48zM348.544-59.775999999999954H165.76c-55.552 0-100.48 44.928-100.48 100.48V223.48800000000006c0 55.552 44.928 100.48 100.48 100.48h182.784c55.552 0 100.48-44.928 100.48-100.48v-182.784c0-55.424-45.056-100.48-100.48-100.48zM858.24-59.775999999999954H675.456c-55.552 0-100.48 44.928-100.48 100.48V223.48800000000006c0 55.552 44.928 100.48 100.48 100.48h182.784c55.552 0 100.48-44.928 100.48-100.48v-182.784c0-55.424-44.928-100.48-100.48-100.48z"  horiz-adv-x="1024" />

    
    <glyph glyph-name="015" unicode="&#59132;" d="M512 830.72C265.344 830.72 65.28 630.656 65.28 384s200.064-446.72 446.72-446.72 446.72 199.936 446.72 446.72S758.656 830.72 512 830.72z m219.008-345.472L447.616 237.18399999999997c-16-14.08-40.32-12.8-54.912 2.688l-101.248 107.904c-0.384 0.384-0.64 0.768-1.024 1.024-11.648 13.056-10.624 33.024 2.432 44.672 13.056 11.648 33.024 10.624 44.672-2.432l85.504-91.136 266.112 232.96c13.184 11.52 33.152 10.24 44.672-2.944s10.24-33.152-2.816-44.672z"  horiz-adv-x="1024" />

    


  </font>
</defs>
</svg>
