<?xml version="1.0" standalone="no"?>
<!DOCTYPE svg PUBLIC "-//W3C//DTD SVG 1.1//EN" "http://www.w3.org/Graphics/SVG/1.1/DTD/svg11.dtd" >
<svg xmlns="http://www.w3.org/2000/svg" xmlns:xlink="http://www.w3.org/1999/xlink" version="1.1">
<metadata>
Created by FontForge 20170731 at Wed May  6 11:10:23 2020
 By Aleksey,,,
</metadata>
<defs>
<font id="decorate" horiz-adv-x="600" >
  <font-face 
    font-family="decorate"
    font-weight="400"
    font-stretch="normal"
    units-per-em="600"
    panose-1="2 0 5 3 0 0 0 0 0 0"
    ascent="600"
    descent="0"
    bbox="0 0 857 600"
    underline-thickness="0"
    underline-position="6"
    unicode-range="U+F101-F165"
  />
<missing-glyph horiz-adv-x="0" 
 />
    <glyph glyph-name=".notdef" horiz-adv-x="0" 
 />
    <glyph glyph-name=".null" horiz-adv-x="0" 
 />
    <glyph glyph-name="nonmarkingreturn" horiz-adv-x="200" 
 />
    <glyph glyph-name="1-1" unicode="&#xf101;" 
d="M90 510v-420h420v420h-420zM30 570h540v-540h-540v540zM150 405q0 -19 13 -32t32 -13t32 13t13 32t-13 32t-32 13t-32 -13t-13 -32zM330 300l120 -150h-240z" />
    <glyph glyph-name="16-9" unicode="&#xf102;" 
d="M60 420v-240h480v240h-480zM0 480h600v-360h-600v360zM120 315q0 -19 13 -32t32 -13t32 13t13 32t-13 32t-32 13t-32 -13t-13 -32zM405 330l105 -120h-210z" />
    <glyph glyph-name="3-2" unicode="&#xf103;" 
d="M60 450v-300h480v300h-480zM0 510h600v-420h-600v420zM120 345q0 -19 13 -32t32 -13t32 13t13 32t-13 32t-32 13t-32 -13t-13 -32zM360 360l120 -150h-240z" />
    <glyph glyph-name="3-4" unicode="&#xf104;" 
d="M150 540v-480h300v480h-300zM90 600h420v-600h-420v600zM210 435q0 -19 13 -32t32 -13t32 13t13 32t-13 32t-32 13t-32 -13t-13 -32zM300 270l120 -150h-240z" />
    <glyph glyph-name="align-center" unicode="&#xf105;" 
d="M60 510h480v-60h-480v60zM60 270h480v-60h-480v60zM180 390h240v-60h-240v60zM180 150h240v-60h-240v60z" />
    <glyph glyph-name="align-left" unicode="&#xf106;" 
d="M60 510h480v-60h-480v60zM60 270h480v-60h-480v60zM60 390h240v-60h-240v60zM60 150h240v-60h-240v60z" />
    <glyph glyph-name="align-right" unicode="&#xf107;" 
d="M60 510h480v-60h-480v60zM60 270h480v-60h-480v60zM300 390h240v-60h-240v60zM300 150h240v-60h-240v60z" />
    <glyph glyph-name="audio-player" unicode="&#xf108;" 
d="M60 360v-120h480v120h-480zM0 420h600v-240h-600v240zM176 315h304v-30h-304q-5 -9 -14.5 -13t-19.5 -1t-16 11t-6 18t6 18t16 11t19.5 -1t14.5 -13z" />
    <glyph glyph-name="audio-simple" unicode="&#xf109;" 
d="M300 75q-61 0 -112.5 30.5t-82 82t-30.5 112.5t30.5 112.5t82 82t112.5 30.5t112.5 -30.5t82 -82t30.5 -112.5t-30.5 -112.5t-82 -82t-112.5 -30.5zM300 135q45 0 83 22t60 60t22 83t-22 83t-60 60t-83 22t-83 -22t-60 -60t-22 -83t22 -83t60 -60t83 -22zM360 300
l-90 -60v120z" />
    <glyph glyph-name="audio-weixin" unicode="&#xf10a;" 
d="M85 300l35 -34v-26h420v120h-420v-26zM60 420h540v-240h-540v61l-60 59l60 59v61zM180 255v30q9 0 13 7.5t0 15t-13 7.5v30q19 0 32 -13t13 -32t-13 -32t-32 -13zM240 255v30q9 0 13 7.5t0 15t-13 7.5v30q19 0 32 -13t13 -32t-13 -32t-32 -13z" />
    <glyph glyph-name="avatar-shape1" unicode="&#xf10b;" 
d="M60 540h60v-480h-60v480zM480 540h60v-480h-60v480zM120 540h360v-60h-360v60zM120 120h360v-60h-360v60zM240 360h120v-120h-120v120z" />
    <glyph glyph-name="avatar-shape2" unicode="&#xf10c;" 
d="M300 480q-49 0 -90.5 -24t-65.5 -65.5t-24 -90.5t24 -90.5t65.5 -65.5t90.5 -24t90.5 24t65.5 65.5t24 90.5t-24 90.5t-65.5 65.5t-90.5 24zM300 540q65 0 120 -32.5t87.5 -87.5t32.5 -120t-32.5 -120t-87.5 -87.5t-120 -32.5t-120 32.5t-87.5 87.5t-32.5 120t32.5 120
t87.5 87.5t120 32.5zM300 360v0q25 0 42.5 -17.5t17.5 -42.5v0q0 -25 -17.5 -42.5t-42.5 -17.5v0q-25 0 -42.5 17.5t-17.5 42.5v0q0 25 17.5 42.5t42.5 17.5z" />
    <glyph glyph-name="big-slide" unicode="&#xf10d;" 
d="M30 480h420v-360h-420v360zM135 300q12 0 22.5 6t16.5 16.5t6 22.5t-6 22.5t-16.5 16.5t-22.5 6q-19 0 -32 -13t-13 -32t13 -32t32 -13zM300 330l-90 -120h180zM510 480h60v-360h-60v360z" />
    <glyph glyph-name="big" unicode="&#xf10e;" 
d="M30 540h540v-480h-540v480zM90 150v-30h420v30h-420zM180 480q-25 0 -42.5 -17.5t-17.5 -42.5t17.5 -42.5t42.5 -17.5t42.5 17.5t17.5 42.5t-17.5 42.5t-42.5 17.5zM300 330l-210 -120h420z" />
    <glyph glyph-name="btn-number" unicode="&#xf10f;" 
d="M90 480v-360h420v360h-420zM30 540h540v-480h-540v480zM150 420h90v-30h-90v30zM300 420h150v-60h-150v60zM150 210h120v-30h-120v30zM300 240h150v-60h-150v60zM300 330h150v-60h-150v60zM180 420h60v-240h-60v240zM390 420h60v-240h-60v240z" />
    <glyph glyph-name="btn-percent" unicode="&#xf110;" 
d="M165 390q0 -19 13 -32t32 -13t32 13t13 32t-13 32t-32 13t-32 -13t-13 -32zM345 210q0 -19 13 -32t32 -13t32 13t13 32t-13 32t-32 13t-32 -13t-13 -32zM360 450h60l-180 -300h-60zM90 480v-360h420v360h-420zM30 540h540v-480h-540v480z" />
    <glyph glyph-name="carousel" unicode="&#xf111;" 
d="M30 510h540v-330h-540v330zM165 330q12 0 22.5 6t16.5 16.5t6 22.5t-6 22.5t-16.5 16.5t-22.5 6q-19 0 -32 -13t-13 -32t13 -32t32 -13zM360 390l-120 -150h240zM120 120zM90 120q0 -8 4 -15t11 -11t15 -4t15 4t11 11t4 15t-4 15t-11 11t-15 4t-15 -4t-11 -11t-4 -15z
M240 120zM210 120q0 -8 4 -15t11 -11t15 -4t15 4t11 11t4 15t-4 15t-11 11t-15 4t-15 -4t-11 -11t-4 -15zM360 120zM330 120q0 -8 4 -15t11 -11t15 -4t15 4t11 11t4 15t-4 15t-11 11t-15 4t-15 -4t-11 -11t-4 -15zM480 120zM450 120q0 -8 4 -15t11 -11t15 -4t15 4t11 11
t4 15t-4 15t-11 11t-15 4t-15 -4t-11 -11t-4 -15z" />
    <glyph glyph-name="corner-round" unicode="&#xf112;" 
d="M120 480v-360h360v360h-360zM60 540h480v-480h-480v480zM300 420h210v-330h-330v210q0 33 16 60.5t43.5 43.5t60.5 16zM300 360q-25 0 -42.5 -17.5t-17.5 -42.5v-180h240v240h-180z" />
    <glyph glyph-name="corner-straight" unicode="&#xf113;" 
d="M120 480v-360h360v360h-360zM60 540h480v-480h-480v480zM480 360h-240v-240h-60v300h300v-60z" />
    <glyph glyph-name="coupon-1" unicode="&#xf114;" 
d="M600 510h-600v-180q12 0 21 -9t9 -21t-9 -21t-21 -9v-180h600v180q-12 0 -21 9t-9 21t9 21t21 9v180zM540 450v-83q-14 -13 -22 -30t-8 -37t8 -37t22 -30v-83h-480v83q14 13 22 30t8 37t-8 37t-22 30v83h480zM210 390h180v-60h-180v60zM210 270h180v-60h-180v60z" />
    <glyph glyph-name="coupon-2" unicode="&#xf115;" 
d="M540 510h-480q0 -25 -17.5 -42.5t-42.5 -17.5v-300q25 0 42.5 -17.5t17.5 -42.5h480q0 25 17.5 42.5t42.5 17.5v300q-25 0 -42.5 17.5t-17.5 42.5zM496 450q16 -28 44 -44v-212q-28 -16 -44 -44h-392q-16 28 -44 44v212q28 16 44 44h392zM210 390h180v-60h-180v60z
M210 270h180v-60h-180v60z" />
    <glyph glyph-name="coupon-3" unicode="&#xf116;" 
d="M600 510h-600v-420h600v180q-12 0 -21 9t-9 21t9 21t21 9v180zM540 450v-83q-14 -13 -22 -30t-8 -37t8 -37t22 -30v-83h-480v300h480zM210 390h180v-60h-180v60zM210 270h180v-60h-180v60z" />
    <glyph glyph-name="coupon-4" unicode="&#xf117;" 
d="M60 450v-300h480v300h-480zM0 510h600v-420h-600v420zM210 390h180v-60h-180v60zM210 270h180v-60h-180v60z" />
    <glyph glyph-name="coupon-5" unicode="&#xf118;" horiz-adv-x="857" 
d="M0 600h857v-86h-857v86zM0 86h857v-86h-857v86zM0 0v600h86v-600h-86zM857 600v-600h-86v600h86zM514 300q0 -36 25 -61t61 -25t61 25t25 61t-25 61t-61 25t-61 -25t-25 -61zM171 429h258v-86h-258v86zM171 257h258v-86h-258v86z" />
    <glyph glyph-name="coupon-6" unicode="&#xf119;" horiz-adv-x="857" 
d="M214 429h257v-86h-257v86zM214 257h257v-86h-257v86zM0 600v-600h857v600h-857zM600 514v-428h-514v428h514z" />
    <glyph glyph-name="coupon-7" unicode="&#xf11a;" horiz-adv-x="857" 
d="M86 514v-428h685v428h-685zM0 600h857v-600h-857v600zM171 429h343v-86h-343v86zM643 429h86v-258h-86v258zM171 257h343v-86h-343v86z" />
    <glyph glyph-name="coupon-8" unicode="&#xf11b;" horiz-adv-x="857" 
d="M857 600h-857v-600h857v600zM771 86h-685v428h685v-428zM129 471h600v-42h-600v42zM129 171h600v-42h-600v42zM129 429h42v-258h-42v258zM686 429h43v-258h-43v258z" />
    <glyph glyph-name="cube-custom" unicode="&#xf11c;" 
d="M90 510h60v-60h-60v60zM90 390h60v-60h-60v60zM210 510h60v-60h-60v60zM210 390h60v-60h-60v60zM330 510h60v-60h-60v60zM330 390h60v-60h-60v60zM450 510h60v-60h-60v60zM450 390h60v-60h-60v60zM90 270h60v-60h-60v60zM210 270h60v-60h-60v60zM330 270h60v-60h-60v60z
M450 270h60v-60h-60v60zM90 150h60v-60h-60v60zM210 150h60v-60h-60v60zM330 150h60v-60h-60v60z" />
    <glyph glyph-name="cube-upto" unicode="&#xf11d;" 
d="M510 540v-210h-420v210h420zM510 270v-210h-180v210h180zM270 270v-210h-180v210h180z" />
    <glyph glyph-name="cube" unicode="&#xf11e;" 
d="M60 540h210v-210h-210v210zM60 270h210v-210h-210v210zM330 540h210v-210h-210v210zM330 270h210v-210h-210v210z" />
    <glyph glyph-name="cuberow" unicode="&#xf11f;" 
d="M30 510h240v-420h-240v420zM330 510h240v-420h-240v420z" />
    <glyph glyph-name="cuberow1" unicode="&#xf120;" 
d="M30 510h90v-420h-90v420zM180 510h90v-420h-90v420zM330 510h90v-420h-90v420zM480 510h90v-420h-90v420z" />
    <glyph glyph-name="cuberow2" unicode="&#xf121;" 
d="M38 510h135v-420h-135v420zM233 510h135v-420h-135v420zM428 510h135v-420h-135v420z" />
    <glyph glyph-name="cubeto" unicode="&#xf122;" 
d="M60 510h210v-420h-210v420zM330 510h210v-180h-210v180zM330 270h210v-180h-210v180z" />
    <glyph glyph-name="cubeto1" unicode="&#xf123;" 
d="M60 510h210v-420h-210v420zM330 510h210v-180h-210v180zM330 270h75v-180h-75v180zM465 270h75v-180h-75v180z" />
    <glyph glyph-name="delete" unicode="&#xf124;" 
d="M510 390v-300q0 -12 -9 -21t-21 -9h-360q-12 0 -21 9t-9 21v300h-30v60h480v-60h-30zM450 390h-300v-270h300v270zM150 540h300v-60h-300v60zM210 330h60v-150h-60v150zM330 330h60v-150h-60v150z" />
    <glyph glyph-name="drag-handler" unicode="&#xf125;" 
d="M60 480h480v-30h-480v30zM60 330h480v-30h-480v30zM60 180h480v-30h-480v30z" />
    <glyph glyph-name="edit" unicode="&#xf126;" 
d="M226 218l131 131l-42 43l-131 -131v-43h42zM315 476l127 -127l-191 -190l-127 -1v128zM378 540l127 -127l-42 -43l-127 128zM60 120h480v-60h-480v60z" />
    <glyph glyph-name="feature" unicode="&#xf127;" 
d="M500 400h-400v67q0 13 10 23t23 10h334q13 0 23 -10t10 -23v-67zM500 367v-234q0 -13 -10 -23t-23 -10h-334q-13 0 -23 10t-10 23v234h400zM150 433q7 0 12 5t5 12t-5 12t-12 5t-12 -5t-5 -12t5 -12t12 -5zM217 433q7 0 11.5 5t4.5 12t-4.5 12t-11.5 5t-12 -5t-5 -12
t5 -12t12 -5zM167 300v-33h166v33h-166zM167 200v-33h66v33h-66z" />
    <glyph glyph-name="fixed" unicode="&#xf128;" 
d="M267 365l-60 -22l123 -123l22 61l107 107l-85 85zM353 579l212 -212l-67 -25l-94 -94l-51 -136l-255 255l136 50l94 94zM205 261l42 -43l-212 -170z" />
    <glyph glyph-name="float" unicode="&#xf129;" 
d="M180 315q-29 0 -53 14t-38 38t-14 53t14 53t38 38t53 14t53 -14t38 -38t14 -53t-14 -53t-38 -38t-53 -14zM180 375q19 0 32 13t13 32t-13 32t-32 13t-32 -13t-13 -32t13 -32t32 -13zM420 315q-29 0 -53 14t-38 38t-14 53t14 53t38 38t53 14t53 -14t38 -38t14 -53t-14 -53
t-38 -38t-53 -14zM420 375q19 0 32 13t13 32t-13 32t-32 13t-32 -13t-13 -32t13 -32t32 -13zM180 75q-29 0 -53 14t-38 38t-14 53t14 53t38 38t53 14t53 -14t38 -38t14 -53t-14 -53t-38 -38t-53 -14zM180 135q19 0 32 13t13 32t-13 32t-32 13t-32 -13t-13 -32t13 -32t32 -13
zM420 75q-29 0 -53 14t-38 38t-14 53t14 53t38 38t53 14t53 -14t38 -38t14 -53t-14 -53t-38 -38t-53 -14zM420 135q19 0 32 13t13 32t-13 32t-32 13t-32 -13t-13 -32t13 -32t32 -13z" />
    <glyph glyph-name="font-bold" unicode="&#xf12a;" 
d="M60 510h480v-60h-480v60zM60 510h60v-90h-60v90zM480 510h60v-90h-60v90zM210 150h180v-60h-180v60zM270 480h60v-360h-60v360z" />
    <glyph glyph-name="font-m" unicode="&#xf12b;" 
d="M451 150h-66l-26 68h-121l-24 -68h-65l117 301h64zM339 269l-41 112l-41 -112h82z" />
    <glyph glyph-name="font-regular" unicode="&#xf12c;" 
d="M60 510h480v-30h-480v30zM60 510h30v-60h-30v60zM510 510h30v-60h-30v60zM285 510h30v-420h-30v420zM210 120h180v-30h-180v30z" />
    <glyph glyph-name="font-s" unicode="&#xf12d;" 
d="M429 180h-56l-23 59h-103l-21 -59h-55l100 258h55zM333 282l-35 96l-35 -96h70z" />
    <glyph glyph-name="font-x" unicode="&#xf12e;" 
d="M494 120h-85l-34 88h-154l-32 -88h-83l151 387h82zM350 273l-53 143l-52 -143h105z" />
    <glyph glyph-name="hotarea" unicode="&#xf12f;" 
d="M390 180q0 -12 9 -21t21 -9t21 9t9 21t-9 21t-21 9v180q12 0 21 9t9 21t-9 21t-21 9t-21 -9t-9 -21h-180q0 12 -9 21t-21 9t-21 -9t-9 -21t9 -21t21 -9v-180q-12 0 -21 -9t-9 -21t9 -21t21 -9t21 9t9 21h180zM210 210v180h180v-180h-180zM60 540h480v-480h-480v480z" />
    <glyph glyph-name="huadong" unicode="&#xf130;" 
d="M60 420h60v-240h-60v240zM150 420h60v-240h-60v240zM540 300l-210 -210v420zM450 300l-60 60v-120zM240 420h60v-240h-60v240zM150 420h150v-60h-150v60zM150 240h150v-60h-150v60z" />
    <glyph glyph-name="huanhang" unicode="&#xf131;" 
d="M120 480v-30h240v30h-240zM60 540h360v-150h-360v150zM120 150v-30h360v30h-360zM60 210h480v-150h-480v150zM480 540h60v-210h-60v210zM210 330h330v-60h-330v60zM120 300l90 60v-120z" />
    <glyph glyph-name="hybrid" unicode="&#xf132;" 
d="M30 540h540v-480h-540v480zM90 480v-180h420v180h-420zM90 240v-120h180v120h-180zM330 240v-120h180v120h-180zM465 360v0q6 0 10.5 -4.5t4.5 -10.5v0q0 -6 -4.5 -10.5t-10.5 -4.5v0q-6 0 -10.5 4.5t-4.5 10.5v0q0 6 4.5 10.5t10.5 4.5z" />
    <glyph glyph-name="image-ad-normal" unicode="&#xf133;" 
d="M60 450v-300h480v300h-480zM0 510h480h120v-420h-600v420zM210 390h60v-60h-60v60zM330 390h60v-60h-60v60zM210 270h60v-60h-60v60zM330 270h60v-60h-60v60z" />
    <glyph glyph-name="img-contain" unicode="&#xf134;" 
d="M90 510v-420h420v420h-420zM30 570h540v-540h-540v540zM210 510v-420h180v420h-180zM150 570h300v-540h-300v540zM300 240l60 -90h-120zM240 420q0 -12 9 -21t21 -9t21 9t9 21t-9 21t-21 9t-21 -9t-9 -21z" />
    <glyph glyph-name="img-cover" unicode="&#xf135;" 
d="M90 510v-420h420v420h-420zM30 570h540v-540h-540v540zM180 480h60v-60h-60v-60h-60v120h60zM420 120h-60v60h60v60h60v-120h-60z" />
    <glyph glyph-name="indicator-1" unicode="&#xf136;" 
d="M60 480v-240h480v240h-480zM0 540h600v-360h-600v360zM120 375q0 -19 13 -32t32 -13t32 13t13 32t-13 32t-32 13t-32 -13t-13 -32zM405 390l105 -120h-210zM105 120h90v-60h-90v60zM255 120h90v-60h-90v60zM405 120h90v-60h-90v60z" />
    <glyph glyph-name="indicator-2" unicode="&#xf137;" 
d="M60 420v-240h480v240h-480zM0 480h600v-360h-600v360zM330 270v-60h-60zM450 270h60v-60h-60v60zM390 270h30l-30 -60h-30z" />
    <glyph glyph-name="indicator-3" unicode="&#xf138;" 
d="M60 420v-240h480v240h-480zM0 480h600v-360h-600v360zM405 300h60q19 0 32 -13t13 -32t-13 -32t-32 -13h-60q-19 0 -32 13t-13 32t13 32t32 13zM390 270v-30h30v30h-30zM450 270v-30h30v30h-30z" />
    <glyph glyph-name="indicator-4" unicode="&#xf139;" 
d="M60 480v-240h480v240h-480zM0 540h600v-360h-600v360zM120 375q0 -19 13 -32t32 -13t32 13t13 32t-13 32t-32 13t-32 -13t-13 -32zM405 390l105 -120h-210zM180 120v0q12 0 21 -9t9 -21v0q0 -12 -9 -21t-21 -9v0q-12 0 -21 9t-9 21v0q0 12 9 21t21 9zM300 120v0
q12 0 21 -9t9 -21v0q0 -12 -9 -21t-21 -9v0q-12 0 -21 9t-9 21v0q0 12 9 21t21 9zM420 120v0q12 0 21 -9t9 -21v0q0 -12 -9 -21t-21 -9v0q-12 0 -21 9t-9 21v0q0 12 9 21t21 9z" />
    <glyph glyph-name="line-dashed" unicode="&#xf13a;" 
d="M60 360v0q25 0 42.5 -17.5t17.5 -42.5v0q0 -25 -17.5 -42.5t-42.5 -17.5v0q-25 0 -42.5 17.5t-17.5 42.5v0q0 25 17.5 42.5t42.5 17.5zM540 360v0q25 0 42.5 -17.5t17.5 -42.5v0q0 -25 -17.5 -42.5t-42.5 -17.5v0q-25 0 -42.5 17.5t-17.5 42.5v0q0 25 17.5 42.5
t42.5 17.5zM90 330h90v-60h-90v60zM219 330h60v-60h-60v60zM318 330h60v-60h-60v60zM420 330h120v-60h-120v60z" />
    <glyph glyph-name="line-dotted" unicode="&#xf13b;" 
d="M0 360zM60 360v0q60 0 60 -60v0q0 -60 -60 -60v0q-60 0 -60 60v0q0 60 60 60zM480 360zM540 360v0q60 0 60 -60v0q0 -60 -60 -60v0q-60 0 -60 60v0q0 60 60 60zM195 315zM210 315v0q15 0 15 -15v0q0 -15 -15 -15v0q-15 0 -15 15v0q0 15 15 15zM255 315zM270 315v0
q15 0 15 -15v0q0 -15 -15 -15v0q-15 0 -15 15v0q0 15 15 15zM315 315zM330 315v0q15 0 15 -15v0q0 -15 -15 -15v0q-15 0 -15 15v0q0 15 15 15zM375 315zM390 315v0q15 0 15 -15v0q0 -15 -15 -15v0q-15 0 -15 15v0q0 15 15 15zM435 315zM450 315v0q15 0 15 -15v0
q0 -15 -15 -15v0q-15 0 -15 15v0q0 15 15 15zM135 315zM150 315v0q15 0 15 -15v0q0 -15 -15 -15v0q-15 0 -15 15v0q0 15 15 15z" />
    <glyph glyph-name="line-no-padding" unicode="&#xf13c;" 
d="M60 330h480v-60h-480v60zM0 390h60v-180h-60v180zM540 390h60v-180h-60v180z" />
    <glyph glyph-name="line-padding" unicode="&#xf13d;" 
d="M120 330h360v-60h-360v60zM90 390h60v-180h-60v180zM0 450h60v-300h-60v300zM540 450h60v-300h-60v300zM450 390h60v-180h-60v180z" />
    <glyph glyph-name="line-solid" unicode="&#xf13e;" 
d="M112 330h376q10 18 29 25.5t38.5 2.5t32 -21.5t12.5 -36.5t-12.5 -36.5t-32 -21.5t-38.5 2.5t-29 25.5h-376q-10 -18 -29 -25.5t-38.5 -2.5t-32 21.5t-12.5 36.5t12.5 36.5t32 21.5t38.5 -2.5t29 -25.5z" />
    <glyph glyph-name="line" unicode="&#xf13f;" 
d="M112 420h376q10 18 29 25.5t38.5 2.5t32 -21.5t12.5 -36.5t-12.5 -36.5t-32 -21.5t-38.5 2.5t-29 25.5h-376q-10 -18 -29 -25.5t-38.5 -2.5t-32 21.5t-12.5 36.5t12.5 36.5t32 21.5t38.5 -2.5t29 -25.5zM112 240h376q10 18 29 25.5t38.5 2.5t32 -21.5t12.5 -36.5
t-12.5 -36.5t-32 -21.5t-38.5 2.5t-29 25.5h-376q-10 -18 -29 -25.5t-38.5 -2.5t-32 21.5t-12.5 36.5t12.5 36.5t32 21.5t38.5 -2.5t29 -25.5z" />
    <glyph glyph-name="list" unicode="&#xf140;" 
d="M30 540h540v-480h-540v480zM90 450v-120h420v120h-420zM90 270v-120h420v120h-420zM435 375q0 -12 9 -21t21 -9t21 9t9 21t-9 21t-21 9t-21 -9t-9 -21zM435 195q0 -12 9 -21t21 -9t21 9t9 21t-9 21t-21 9t-21 -9t-9 -21z" />
    <glyph glyph-name="menu-fixed" unicode="&#xf141;" 
d="M150 510v-420h300v420h-300zM90 570h420v-540h-420v540zM150 450h300v-60h-300v60zM300 330l60 -90h-120z" />
    <glyph glyph-name="menu-left" unicode="&#xf142;" 
d="M75 540h60v-480h-60v480zM267 330h258v-60h-258l69 -69l-42 -42l-141 141l141 141l42 -42z" />
    <glyph glyph-name="menu-normal" unicode="&#xf143;" 
d="M120 450v-60h360v60h-360zM60 510h480v-180h-480v180zM120 210v-60h360v60h-360zM60 270h480v-180h-480v180z" />
    <glyph glyph-name="menu-top" unicode="&#xf144;" 
d="M30 540h540v-60h-540v60zM330 348v-258h-60v258l-69 -69l-42 42l141 141l141 -141l-42 -42z" />
    <glyph glyph-name="nav-slide" unicode="&#xf145;" 
d="M30 420h540v-240h-540v240zM90 330v-60h90v60h-90zM240 330v-60h120v60h-120zM420 330v-60h90v60h-90z" />
    <glyph glyph-name="neirong" unicode="&#xf146;" 
d="M90 210h60v-150h-60v150zM450 180h60v-120h-60v120zM150 120h300v-60h-300v60zM90 210v60h222l31 -30h167v-60h-191l-31 30h-198zM120 480h60v-210h-60v210zM420 480h60v-240h-60v240zM120 540h360v-60h-360v60zM210 450h180v-30h-180v30zM330 390h60v-30h-60v30z" />
    <glyph glyph-name="progress-1" unicode="&#xf147;" 
d="M90 390h420q37 0 63.5 -26.5t26.5 -63.5t-26.5 -63.5t-63.5 -26.5h-420q-37 0 -63.5 26.5t-26.5 63.5t26.5 63.5t63.5 26.5zM90 330q-12 0 -21 -9t-9 -21t9 -21t21 -9h420q12 0 21 9t9 21t-9 21t-21 9h-420zM60 330h210l-60 -60h-150v60zM330 330h60l-60 -60h-60z" />
    <glyph glyph-name="progress-2" unicode="&#xf148;" 
d="M60 360v-120h480v120h-480zM0 420h600v-240h-600v240zM90 330h300q12 0 21 -9t9 -21v0q0 -12 -9 -21t-21 -9h-300v60z" />
    <glyph glyph-name="scroll" unicode="&#xf149;" 
d="M120 480v-360h360v360h-360zM60 540h480v-480h-480v480zM330 330v60l120 -90l-120 -90v60h-150v60h150z" />
    <glyph glyph-name="search-fixed" unicode="&#xf14a;" 
d="M180 570v0q12 0 21 -9t9 -21v-420q0 -12 -9 -21t-21 -9v0q-12 0 -21 9t-9 21v420q0 12 9 21t21 9zM210 345q53 -17 105 -17t105 17v112q-52 -13 -104.5 -13t-105.5 13v-112zM150 540q84 -36 166 -36t164 36v-236q-83 -36 -165 -36t-165 36v236zM90 90h420v-30h-420v30z
" />
    <glyph glyph-name="search-normal" unicode="&#xf14b;" 
d="M150 510v-420h300v420h-300zM120 570h360q12 0 21 -9t9 -21v-480q0 -12 -9 -21t-21 -9h-360q-12 0 -21 9t-9 21v480q0 12 9 21t21 9zM180 450h240v-60h-240v60z" />
    <glyph glyph-name="search-round" unicode="&#xf14c;" 
d="M456 144q-29 -29 -67.5 -39t-77.5 0t-67.5 39t-38.5 67.5t0 77.5t38.5 67.5t67.5 38.5t77.5 0t67.5 -38.5t39 -67.5t0 -77.5t-39 -67.5zM413 187q27 26 27 63.5t-26.5 63.5t-64 26t-63.5 -26t-26 -63.5t26 -64t63.5 -26.5t63.5 27zM413 144l43 43l127 -128l-42 -42z
M600 315h-60q0 37 -18 68t-49 49t-68 18h-210q-37 0 -68 -18t-49 -49t-18 -68t18 -68t49 -49t68 -18v-60q-53 0 -98 26t-71 71t-26 98t26 98t71 71t98 26h210q53 0 98 -26t71 -71t26 -98z" />
    <glyph glyph-name="search-scroll" unicode="&#xf14d;" 
d="M450 510h-300v-90h-60v150h420v-150h-60v90zM60 390h480v-60h-480v60zM120 300h360v-60h-360v60zM150 90h300v90h60v-150h-420v150h60v-90z" />
    <glyph glyph-name="search-square" unicode="&#xf14e;" 
d="M60 180v270h480v-270h60v330h-600v-390h150v60h-90zM540 450v-270h60v330h-600v-390h150v60h-90v270h480zM456 144q-29 -29 -67.5 -39t-77.5 0t-67.5 39t-38.5 67.5t0 77.5t38.5 67.5t67.5 38.5t77.5 0t67.5 -38.5t39 -67.5t0 -77.5t-39 -67.5zM413 187q27 26 27 63.5
t-26.5 63.5t-64 26t-63.5 -26t-26 -63.5t26 -64t63.5 -26.5t63.5 27zM413 144l43 43l127 -128l-42 -42z" />
    <glyph glyph-name="search-sticky" unicode="&#xf14f;" 
d="M150 510v-420h300v420h-300zM120 570h360q12 0 21 -9t9 -21v-480q0 -12 -9 -21t-21 -9h-360q-12 0 -21 9t-9 21v480q0 12 9 21t21 9zM180 450h240v-60h-240v60zM261 264l-42 42l81 81l81 -81l-42 -42l-39 39z" />
    <glyph glyph-name="shadow" unicode="&#xf150;" 
d="M405 510v-300h-300v300h300zM465 570h-420v-420h420v420zM195 204h-60v-144h420v420h-102v-60h42v-300h-300v84z" />
    <glyph glyph-name="shop-info-1" unicode="&#xf151;" 
d="M90 420v-240h420v240h-420zM30 480h540v-360h-540v360zM120 300h90v-90h-90v90zM240 270h120v-30h-120v30z" />
    <glyph glyph-name="shop-info-2" unicode="&#xf152;" 
d="M90 420v-240h420v240h-420zM30 480h540v-360h-540v360zM120 255q0 -19 13 -32t32 -13t32 13t13 32t-13 32t-32 13t-32 -13t-13 -32zM240 270h120v-30h-120v30z" />
    <glyph glyph-name="shop-info-3" unicode="&#xf153;" 
d="M90 420v-240h420v240h-420zM30 480h540v-360h-540v360zM120 300h90v-90h-90v90zM240 270h60v-30h-60v30zM330 270h60v-30h-60v30z" />
    <glyph glyph-name="shop-info-4" unicode="&#xf154;" 
d="M90 450v-300h420v300h-420zM30 510h540v-420h-540v420zM255 285q0 -19 13 -32t32 -13t32 13t13 32t-13 32t-32 13t-32 -13t-13 -32zM240 210h120v-30h-120v30z" />
    <glyph glyph-name="shop-info-5" unicode="&#xf155;" 
d="M90 450v-300h420v300h-420zM30 510h540v-420h-540v420zM255 345q0 -19 13 -32t32 -13t32 13t13 32t-13 32t-32 13t-32 -13t-13 -32zM240 270h120v-30h-120v30z" />
    <glyph glyph-name="shopnote-hybrid" unicode="&#xf156;" 
d="M570 540v-480h-540v480h540zM510 180h-420v-60h420v60zM510 270h-420v-60h420v60zM510 480h-420v-180h420v180zM465 255v0q6 0 10.5 -4.5t4.5 -10.5v0q0 -6 -4.5 -10.5t-10.5 -4.5v0q-6 0 -10.5 4.5t-4.5 10.5v0q0 6 4.5 10.5t10.5 4.5zM465 360v0q6 0 10.5 -4.5
t4.5 -10.5v0q0 -6 -4.5 -10.5t-10.5 -4.5v0q-6 0 -10.5 4.5t-4.5 10.5v0q0 6 4.5 10.5t10.5 4.5zM465 165v0q6 0 10.5 -4.5t4.5 -10.5v0q0 -6 -4.5 -10.5t-10.5 -4.5v0q-6 0 -10.5 4.5t-4.5 10.5v0q0 6 4.5 10.5t10.5 4.5z" />
    <glyph glyph-name="small-slide" unicode="&#xf157;" 
d="M30 420h210v-240h-210v240zM300 420h120v-240h-120v240zM480 420h90v-240h-90v240z" />
    <glyph glyph-name="small" unicode="&#xf158;" 
d="M30 540h540v-480h-540v480zM90 450v-210h180v210h-180zM90 180v-30h180v30h-180zM330 180v-30h180v30h-180zM330 450v-210h180v210h-180z" />
    <glyph glyph-name="social-fans" unicode="&#xf159;" 
d="M252 150h236v338h-375v-338h76l-1 -42zM150 75h1h-1l1 38h-37h-1v0h-38v412h450v-412h-262l-113 -75v37zM376 326q6 6 7.5 14.5t-1.5 16.5t-10.5 13t-16.5 5q-18 0 -31 -11l-24 -21l-25 21q-12 11 -30 11q-10 0 -17 -5t-10.5 -14t-1 -17.5t9.5 -14.5l74 -69zM414 315
l-2 -5l-9 -10l-103 -97l-98 92q-16 14 -21.5 34t1.5 40t24.5 32t38.5 11q15 0 29.5 -5t25.5 -15q11 10 25.5 15t30.5 5.5t30.5 -7.5t24 -22t11 -30.5t-4.5 -31.5z" />
    <glyph glyph-name="swipe" unicode="&#xf15a;" 
d="M30 540h540v-480h-540v480zM90 450v-240h150v240h-150zM300 450v-240h150v240h-150zM90 180v-30h150v30h-150zM300 180v-30h150v30h-150zM510 450v-240h30v240h-30zM510 180v-30h30v30h-30z" />
    <glyph glyph-name="tabs-1" unicode="&#xf15b;" 
d="M90 420v-120h420v120h-420zM30 480h540v-240h-540v240zM30 180h540v-60h-540v60z" />
    <glyph glyph-name="tabs-2" unicode="&#xf15c;" 
d="M150 390q-37 0 -63.5 -26.5t-26.5 -63.5t26.5 -63.5t63.5 -26.5h300q37 0 63.5 26.5t26.5 63.5t-26.5 63.5t-63.5 26.5h-300zM150 450h300q41 0 75.5 -20t54.5 -54.5t20 -75.5t-20 -75.5t-54.5 -54.5t-75.5 -20h-300q-41 0 -75.5 20t-54.5 54.5t-20 75.5t20 75.5
t54.5 54.5t75.5 20zM180 330h60v-60h-60v60zM360 330h60v-60h-60v60zM270 330h60v-60h-60v60z" />
    <glyph glyph-name="tabs-3" unicode="&#xf15d;" 
d="M330 233h150v217h-360v-217h151l29 -41zM60 510h480v-337h-180l-60 -84l-60 84h-180v337zM210 390h180v-60h-180v60z" />
    <glyph glyph-name="text-position-cover" unicode="&#xf15e;" 
d="M120 480v-240h360v240h-360zM60 540h480v-480h-480v480zM180 285h240q6 0 10.5 -4.5t4.5 -10.5v0q0 -6 -4.5 -10.5t-10.5 -4.5h-240q-6 0 -10.5 4.5t-4.5 10.5v0q0 6 4.5 10.5t10.5 4.5zM120 210h360v-90h-360v90z" />
    <glyph glyph-name="text-position-follow" unicode="&#xf15f;" 
d="M120 480v-360h360v360h-360zM60 540h480v-480h-480v480zM120 210v30h360v-30h-360zM165 180h270q6 0 10.5 -4.5t4.5 -10.5v0q0 -6 -4.5 -10.5t-10.5 -4.5h-270q-6 0 -10.5 4.5t-4.5 10.5v0q0 6 4.5 10.5t10.5 4.5z" />
    <glyph glyph-name="three" unicode="&#xf160;" 
d="M30 540h540v-480h-540v480zM90 450v-210h120v210h-120zM90 180v-30h120v30h-120zM240 180v-30h120v30h-120zM390 180v-30h120v30h-120zM240 450v-210h120v210h-120zM390 450v-210h120v210h-120z" />
    <glyph glyph-name="up2end" unicode="&#xf161;" 
d="M30 540h540v-360h-540v360zM165 360q12 0 22.5 6t16.5 16.5t6 22.5t-6 22.5t-16.5 16.5t-22.5 6q-19 0 -32 -13t-13 -32t13 -32t32 -13zM360 420l-120 -150h240zM30 120h540v-60h-540v60z" />
    <glyph glyph-name="white" unicode="&#xf162;" 
d="M120 510v-420h360v253l-171 167h-189zM60 570h274l206 -202v-338h-480v540zM270 510h60v-210h-60v210zM300 360h180v-60h-180v60z" />
    <glyph glyph-name="xianxiake" unicode="&#xf163;" 
d="M90 540h60v-480h-60v480zM150 540h300v-60h-300v60zM150 120h300v-60h-300v60zM450 540h60v-480h-60v480zM330 480h60v-120l-30 30l-30 -30v120z" />
    <glyph glyph-name="zhibo" unicode="&#xf164;" 
d="M90 420h60v-360h-60v360zM150 120h300v-60h-300v60zM401 420h49v-60h-300v60h48l-78 78l42 42l120 -120h34l120 120l43 -42zM450 420h60v-360h-60v360zM360 240l-90 -60v120z" />
    <glyph glyph-name="zhuanlan" unicode="&#xf165;" 
d="M90 540h60v-420h-60v420zM450 390h60v-270h-60v270zM360 540h60v-360h-60v360zM150 540h210v-60h-210v60zM420 450h90v-60h-90v60zM90 120h420v-60h-420v60zM180 450h90v-30h-90v30zM180 330h150v-30h-150v30zM180 270h150v-30h-150v30z" />
  </font>
</defs>
</svg>
